<?xml version='1.0' encoding='UTF-8' standalone='no'?>
<svg viewBox="0 0 585 434" xmlns:xlink="http://www.w3.org/1999/xlink" width="585pt" height="434pt" xmlns="http://www.w3.org/2000/svg">
 <title>Figure 1</title>
 <desc>
Creator: GL2PS 1.4.2, (C) 1999-2020 C. Geuzaine
For: Octave
CreationDate: Sat Nov 26 12:58:21 2022
</desc>
 <defs/>
 <polygon fill="#ffffff" points="0,0 585,0 585,434 0,434"/>
 <g>
  <polygon fill="#ffffff" shape-rendering="crispEdges" points="0,434 585,434 585,0 0,0"/>
  <clipPath id="cp00585434">
   <polygon points="0,434 585,434 585,0 0,0"/>
  </clipPath>
  <g clip-path="url(#cp00585434)">
   <polygon fill="#ffffff" shape-rendering="crispEdges" points="514.172,386.701 76.0724,386.701 76.0724,32.6024 514.172,32.6024"/>
   <polyline stroke-linecap="butt" stroke-linejoin="miter" stroke-width="0.5" stroke="#262626" fill="none" points="126.089,386.701 126.089,382.318"/>
   <polyline stroke-linecap="butt" stroke-linejoin="miter" stroke-width="0.5" stroke="#262626" fill="none" points="199.106,386.701 199.106,382.318"/>
   <polyline stroke-linecap="butt" stroke-linejoin="miter" stroke-width="0.5" stroke="#262626" fill="none" points="272.122,386.701 272.122,382.318"/>
   <polyline stroke-linecap="butt" stroke-linejoin="miter" stroke-width="0.5" stroke="#262626" fill="none" points="345.139,386.701 345.139,382.318"/>
   <polyline stroke-linecap="butt" stroke-linejoin="miter" stroke-width="0.5" stroke="#262626" fill="none" points="418.156,386.701 418.156,382.318"/>
   <polyline stroke-linecap="butt" stroke-linejoin="miter" stroke-width="0.5" stroke="#262626" fill="none" points="491.172,386.701 491.172,382.318"/>
   <g xml:space="preserve" font-weight="normal" font-family="FreeSans" font-style="normal" font-size="16" transform="translate(112.589,411.704) rotate(-0,13.5,-13)">
    <text fill="rgb(38,38,38)" y="-0" x="0 9 18 ">280</text>
   </g>
   <g xml:space="preserve" font-weight="normal" font-family="FreeSans" font-style="normal" font-size="16" transform="translate(185.605,411.704) rotate(-0,13.5,-13)">
    <text fill="rgb(38,38,38)" y="-0" x="0 9 18 ">290</text>
   </g>
   <g xml:space="preserve" font-weight="normal" font-family="FreeSans" font-style="normal" font-size="16" transform="translate(258.622,411.704) rotate(-0,13.5,-13)">
    <text fill="rgb(38,38,38)" y="-0" x="0 9 18 ">300</text>
   </g>
   <g xml:space="preserve" font-weight="normal" font-family="FreeSans" font-style="normal" font-size="16" transform="translate(331.639,411.704) rotate(-0,13.5,-13)">
    <text fill="rgb(38,38,38)" y="-0" x="0 9 18 ">310</text>
   </g>
   <g xml:space="preserve" font-weight="normal" font-family="FreeSans" font-style="normal" font-size="16" transform="translate(404.655,411.704) rotate(-0,13.5,-13)">
    <text fill="rgb(38,38,38)" y="-0" x="0 9 18 ">320</text>
   </g>
   <g xml:space="preserve" font-weight="normal" font-family="FreeSans" font-style="normal" font-size="16" transform="translate(477.672,411.704) rotate(-0,13.5,-13)">
    <text fill="rgb(38,38,38)" y="-0" x="0 9 18 ">330</text>
   </g>
   <polyline stroke-linecap="butt" stroke-linejoin="miter" stroke-width="0.5" stroke="#262626" fill="none" points="514.172,386.701 509.791,386.701"/>
   <polyline stroke-linecap="butt" stroke-linejoin="miter" stroke-width="0.5" stroke="#262626" fill="none" points="514.172,327.684 509.791,327.684"/>
   <polyline stroke-linecap="butt" stroke-linejoin="miter" stroke-width="0.5" stroke="#262626" fill="none" points="514.172,268.668 509.791,268.668"/>
   <polyline stroke-linecap="butt" stroke-linejoin="miter" stroke-width="0.5" stroke="#262626" fill="none" points="514.172,209.651 509.791,209.651"/>
   <polyline stroke-linecap="butt" stroke-linejoin="miter" stroke-width="0.5" stroke="#262626" fill="none" points="514.172,150.635 509.791,150.635"/>
   <polyline stroke-linecap="butt" stroke-linejoin="miter" stroke-width="0.5" stroke="#262626" fill="none" points="514.172,91.6187 509.791,91.6187"/>
   <g xml:space="preserve" font-weight="normal" font-family="FreeSans" font-style="normal" font-size="16" transform="translate(522.174,393.201) rotate(-0,-0,-6.5)">
    <text fill="rgb(38,38,38)" y="-0" x="0 ">0</text>
   </g>
   <g xml:space="preserve" font-weight="normal" font-family="FreeSans" font-style="normal" font-size="16" transform="translate(522.174,334.184) rotate(-0,-0,-6.5)">
    <text fill="rgb(38,38,38)" y="-0" x="0 9 13 22 31 ">0.005</text>
   </g>
   <g xml:space="preserve" font-weight="normal" font-family="FreeSans" font-style="normal" font-size="16" transform="translate(522.174,275.168) rotate(-0,-0,-6.5)">
    <text fill="rgb(38,38,38)" y="-0" x="0 9 13 22 ">0.01</text>
   </g>
   <g xml:space="preserve" font-weight="normal" font-family="FreeSans" font-style="normal" font-size="16" transform="translate(522.174,216.151) rotate(-0,-0,-6.5)">
    <text fill="rgb(38,38,38)" y="-0" x="0 9 13 22 31 ">0.015</text>
   </g>
   <g xml:space="preserve" font-weight="normal" font-family="FreeSans" font-style="normal" font-size="16" transform="translate(522.174,157.135) rotate(-0,-0,-6.5)">
    <text fill="rgb(38,38,38)" y="-0" x="0 9 13 22 ">0.02</text>
   </g>
   <g xml:space="preserve" font-weight="normal" font-family="FreeSans" font-style="normal" font-size="16" transform="translate(522.174,98.1187) rotate(-0,-0,-6.5)">
    <text fill="rgb(38,38,38)" y="-0" x="0 9 13 22 31 ">0.025</text>
   </g>
   <polyline stroke-linecap="square" stroke-linejoin="miter" stroke-width="0.5" stroke="#262626" fill="none" stroke-dasharray="16,0" points="514.172,386.701 76.0724,386.701"/>
   <polyline stroke-linecap="square" stroke-linejoin="miter" stroke-width="0.5" stroke="#262626" fill="none" stroke-dasharray="16,0" points="514.172,386.701 514.172,32.6024"/>
   <g xml:space="preserve" font-weight="normal" font-family="FreeSans" font-style="normal" font-size="17.6" transform="translate(197.622,434.704) rotate(-0,97.5,-18)">
    <text fill="rgb(38,38,38)" y="-4" x="0 12 18 26 30 42 51 55 65 69 80 89 103 113 122 128 138 143 152 158 167 171 177 189 ">Dry Bulb Temperature (K)</text>
   </g>
   <g xml:space="preserve" font-weight="normal" font-family="FreeSans" font-style="normal" font-size="17.6" transform="translate(450.174,227.651) rotate(-90,117,-18)">
    <text fill="rgb(38,38,38)" y="-4" x="0 13 22 36 40 50 54 59 67 71 77 86 96 100 109 119 129 138 144 148 153 157 166 176 180 190 196 204 208 218 222 228 ">Humidity (kg vapor / kg dry air)</text>
   </g>
   <polyline stroke-linecap="butt" stroke-linejoin="round" stroke-width="1.2" stroke="#00ff00" fill="none" stroke-dasharray="8,3,2,3" points="79.5042,340.621 80.8915,345.769 82.2789,350.911 83.6662,356.045 85.0535,361.172 86.4408,366.292 87.901,371.405 89.2883,376.51 90.6757,385.52 92.063,385.52"/>
   <polyline stroke-linecap="butt" stroke-linejoin="round" stroke-width="1.2" stroke="#00ff00" fill="none" stroke-dasharray="8,3,2,3" points="125.213,320.752 127.257,328.139 129.302,335.51 131.346,342.867 133.391,350.208 135.435,357.536 137.479,364.849 139.524,372.147 141.568,385.52 143.613,385.52"/>
   <polyline stroke-linecap="butt" stroke-linejoin="round" stroke-width="1.2" stroke="#00ff00" fill="none" stroke-dasharray="8,3,2,3" points="165.445,282.115 168.731,293.882 172.089,305.613 175.375,317.307 178.661,328.962 181.947,340.583 185.232,352.167 188.518,363.714 191.877,375.225 195.163,385.52"/>
   <polyline stroke-linecap="butt" stroke-linejoin="round" stroke-width="1.2" stroke="#00ff00" fill="none" stroke-dasharray="8,3,2,3" points="204.144,239.478 208.89,256.133 213.563,272.702 218.309,289.204 223.055,305.633 227.801,321.989 232.474,338.274 237.22,354.487 241.966,370.629 246.712,385.52"/>
   <polyline stroke-linecap="butt" stroke-linejoin="round" stroke-width="1.2" stroke="#00ff00" fill="none" stroke-dasharray="8,3,2,3" points="239.995,188.571 246.493,211.115 252.919,233.518 259.417,255.79 265.916,277.933 272.341,299.944 278.84,321.825 285.265,343.577 291.764,365.202 298.262,385.52"/>
   <polyline stroke-linecap="butt" stroke-linejoin="round" stroke-width="1.2" stroke="#00ff00" fill="none" stroke-dasharray="8,3,2,3" points="271.246,123.287 279.935,153.48 288.697,183.436 297.386,213.169 306.148,242.653 314.91,271.915 323.599,300.946 332.361,329.752 341.05,358.336 349.812,385.52"/>
   <polyline stroke-linecap="butt" stroke-linejoin="round" stroke-width="1.2" stroke="#00ff00" fill="none" stroke-dasharray="8,3,2,3" points="300.234,52.2076 311.478,90.8751 322.723,129.153 333.967,167.042 345.212,204.564 356.384,241.709 367.628,278.49 378.873,314.913 390.117,350.981 401.362,385.52"/>
   <polyline stroke-linecap="butt" stroke-linejoin="round" stroke-width="1.2" stroke="#00ff00" fill="none" stroke-dasharray="8,3,2,3" points="343.705,32.2483 354.704,69.5584 368.723,116.535 382.742,162.934 396.762,208.766 410.781,254.055 424.8,298.8 438.892,343.012 452.912,385.52"/>
   <polyline stroke-linecap="butt" stroke-linejoin="round" stroke-width="1.2" stroke="#00ff00" fill="none" stroke-dasharray="8,3,2,3" points="392.883,32.2483 402.165,63.0666 419.178,118.979 436.264,174.076 453.277,228.371 470.363,281.904 487.375,334.673 504.461,385.52"/>
   <polyline stroke-linecap="butt" stroke-linejoin="round" stroke-width="1.2" stroke="#00ff00" fill="none" stroke-dasharray="8,3,2,3" points="442.064,32.2483 450.721,60.4935 466.566,111.484 482.41,161.813 498.328,211.481 514.172,260.5"/>
   <polyline stroke-linecap="butt" stroke-linejoin="round" stroke-width="1.2" stroke="#0000ff" fill="none" points="112.581,322.94 123.46,330.087 134.267,337.219 145.146,344.334 155.953,351.435 166.832,358.519 177.639,365.588 188.518,372.64 199.325,379.678 210.204,386.7"/>
   <polyline stroke-linecap="butt" stroke-linejoin="round" stroke-width="1.2" stroke="#0000ff" fill="none" points="149.089,296.64 164.35,306.772 179.61,316.872 194.798,326.942 210.058,336.978 225.318,346.985 240.579,356.96 255.839,366.903 271.027,376.817 286.288,386.699"/>
   <polyline stroke-linecap="butt" stroke-linejoin="round" stroke-width="1.2" stroke="#0000ff" fill="none" points="185.597,261.031 206.772,275.233 227.947,289.378 249.122,303.461 270.297,317.484 291.472,331.446 312.646,345.348 333.821,359.189 354.996,372.972 376.171,386.695"/>
   <polyline stroke-linecap="butt" stroke-linejoin="round" stroke-width="1.2" stroke="#0000ff" fill="none" points="222.106,213.251 251.166,232.987 280.3,252.604 309.361,272.099 338.421,291.481 367.555,310.748 396.616,329.9 425.676,348.94 454.81,367.866 483.871,386.682"/>
   <polyline stroke-linecap="butt" stroke-linejoin="round" stroke-width="1.2" stroke="#0000ff" fill="none" points="258.614,149.679 287.018,169.225 315.421,188.653 343.825,207.975 372.228,227.179 400.559,246.277 428.962,265.257 457.365,284.124 485.769,302.887 514.172,321.541"/>
   <polyline stroke-linecap="butt" stroke-linejoin="round" stroke-width="1.2" stroke="#0000ff" fill="none" points="295.122,65.6161 319.437,82.6718 343.825,99.6449 368.139,116.524 392.454,133.331 416.841,150.033 441.156,166.664 465.471,183.212 489.858,199.678 514.172,216.061"/>
   <polyline stroke-linecap="butt" stroke-linejoin="round" stroke-width="1.2" stroke="#0000ff" fill="none" points="440.564,32.2483 453.35,41.207 473.575,55.3591 493.874,69.464 514.172,83.4981"/>
   <polyline stroke-linecap="butt" stroke-linejoin="round" stroke-width="1.2" stroke="#ff0000" fill="none" stroke-dasharray="8,3,2,3" points="78.4821,341.071 86.2946,346.174 94.0344,351.268 101.847,356.354 109.66,361.432 117.473,366.502 125.286,371.563 133.026,376.617 140.838,381.663 148.651,386.701"/>
   <polyline stroke-linecap="butt" stroke-linejoin="round" stroke-width="1.2" stroke="#ff0000" fill="none" stroke-dasharray="8,3,2,3" points="117.838,319.742 129.302,327.251 140.765,334.743 152.302,342.216 163.766,349.674 175.302,357.113 186.766,364.536 198.229,371.942 209.766,379.329 221.23,386.701"/>
   <polyline stroke-linecap="butt" stroke-linejoin="round" stroke-width="1.2" stroke="#ff0000" fill="none" stroke-dasharray="8,3,2,3" points="151.353,294.765 167.197,305.11 182.969,315.423 198.813,325.702 214.658,335.95 230.503,346.165 246.347,356.347 262.119,366.497 277.964,376.615 293.808,386.701"/>
   <polyline stroke-linecap="butt" stroke-linejoin="round" stroke-width="1.2" stroke="#ff0000" fill="none" stroke-dasharray="8,3,2,3" points="180.267,266.933 200.931,280.462 221.595,293.935 242.332,307.352 262.995,320.713 283.659,334.019 304.323,347.272 325.059,360.468 345.723,373.611 366.387,386.701"/>
   <polyline stroke-linecap="butt" stroke-linejoin="round" stroke-width="1.2" stroke="#ff0000" fill="none" stroke-dasharray="8,3,2,3" points="205.385,236.811 231.379,253.807 257.3,270.723 283.294,287.548 309.215,304.288 335.209,320.94 361.13,337.507 387.05,353.989 413.044,370.386 438.965,386.701"/>
   <polyline stroke-linecap="butt" stroke-linejoin="round" stroke-width="1.2" stroke="#ff0000" fill="none" stroke-dasharray="8,3,2,3" points="227.655,204.895 259.198,225.609 290.741,246.194 322.285,266.638 353.828,286.963 385.371,307.158 416.914,327.23 448.457,347.176 480.001,367 511.544,386.701"/>
   <polyline stroke-linecap="butt" stroke-linejoin="round" stroke-width="1.2" stroke="#ff0000" fill="none" stroke-dasharray="8,3,2,3" points="247.297,171.409 276.941,190.943 306.586,210.36 336.231,229.67 365.876,248.862 395.52,267.936 425.238,286.904 454.883,305.762 484.528,324.509 514.172,343.149"/>
   <polyline stroke-linecap="butt" stroke-linejoin="round" stroke-width="1.2" stroke="#ff0000" fill="none" stroke-dasharray="8,3,2,3" points="264.894,136.754 292.64,155.061 320.313,173.274 347.987,191.38 375.733,209.392 403.406,227.297 431.079,245.108 458.753,262.825 486.499,280.445 514.172,297.971"/>
   <polyline stroke-linecap="butt" stroke-linejoin="round" stroke-width="1.2" stroke="#ff0000" fill="none" stroke-dasharray="8,3,2,3" points="280.884,101.109 306.805,118.306 332.726,135.421 358.647,152.453 384.568,169.391 410.489,186.234 436.41,203.006 462.331,219.684 488.252,236.28 514.172,252.792"/>
   <polyline stroke-linecap="butt" stroke-linejoin="round" stroke-width="1.2" stroke="#ff0000" fill="none" stroke-dasharray="8,3,2,3" points="295.488,64.6364 319.802,80.8305 344.117,96.942 368.431,112.983 392.673,128.941 416.987,144.828 441.302,160.632 465.616,176.366 489.858,192.029 514.172,207.609"/>
   <polyline stroke-linecap="butt" stroke-linejoin="round" stroke-width="1.2" stroke="#ff0000" fill="none" stroke-dasharray="8,3,2,3" points="316.018,32.2483 331.704,42.765 354.558,57.9558 377.339,73.0876 400.12,88.1486 422.975,103.139 445.756,118.058 468.537,132.918 491.391,147.708 514.172,162.438"/>
   <polyline stroke-linecap="butt" stroke-linejoin="round" stroke-width="1.2" stroke="#ff0000" fill="none" stroke-dasharray="8,3,2,3" points="384.775,32.2483 385.517,32.744 406.984,46.9788 428.378,61.1544 449.845,75.2712 471.312,89.3289 492.706,103.316 514.172,117.255"/>
   <polyline stroke-linecap="butt" stroke-linejoin="round" stroke-width="1.2" stroke="#ff0000" fill="none" stroke-dasharray="8,3,2,3" points="453.517,32.2483 453.642,32.3309 473.868,45.6332 494.02,58.8764 514.172,72.0843"/>
   <polyline stroke-linecap="butt" stroke-linejoin="round" stroke-width="1.2" stroke="#000000" fill="none" points="76.0724,384.486 99.1457,383.923 122.219,383.236 145.219,382.404 168.292,381.4 191.366,380.196 214.439,378.757 237.512,377.046 260.513,375.02 283.586,372.633 306.659,369.83 329.733,366.554 352.733,362.736 375.806,358.307 398.879,353.183 421.952,347.278 445.026,340.493 468.026,332.721 491.099,323.845 514.172,313.736"/>
   <polyline stroke-linecap="butt" stroke-linejoin="round" stroke-width="1.2" stroke="#000000" fill="none" points="76.0724,382.27 99.1457,381.143 122.219,379.769 145.219,378.103 168.292,376.092 191.366,373.679 214.439,370.796 237.512,367.366 260.513,363.303 283.586,358.511 306.659,352.883 329.733,346.296 352.733,338.615 375.806,329.692 398.879,319.358 421.952,307.43 445.026,293.699 468.026,277.94 491.099,259.898 514.172,239.301"/>
   <polyline stroke-linecap="butt" stroke-linejoin="round" stroke-width="1.2" stroke="#000000" fill="none" points="76.0724,377.833 99.1457,375.576 122.219,372.823 145.219,369.484 168.292,365.453 191.366,360.612 214.439,354.821 237.512,347.928 260.513,339.755 283.586,330.104 306.659,318.751 329.733,305.443 352.733,289.896 375.806,271.791 398.879,250.774 421.952,226.424 445.026,198.308 468.026,165.909 491.099,128.646 514.172,85.8705"/>
   <polyline stroke-linecap="butt" stroke-linejoin="round" stroke-width="1.2" stroke="#000000" fill="none" points="76.0724,368.945 99.1457,364.418 122.219,358.894 145.219,352.188 168.292,344.084 191.366,334.336 214.439,322.664 237.512,308.743 260.513,292.205 283.586,272.629 306.659,249.535 329.733,222.364 352.733,190.507 375.806,153.232 398.879,109.713 421.952,58.9945 432.414,32.2483"/>
   <polyline stroke-linecap="butt" stroke-linejoin="round" stroke-width="1.2" stroke="#000000" fill="none" points="76.0724,360.035 99.1457,353.226 122.219,344.912 145.219,334.809 168.292,322.589 191.366,307.872 214.439,290.224 237.512,269.14 260.513,244.034 283.586,214.255 306.659,179.01 329.733,137.415 352.733,88.42 375.238,32.2483"/>
   <polyline stroke-linecap="butt" stroke-linejoin="round" stroke-width="1.2" stroke="#000000" fill="none" points="76.0724,351.103 99.1457,342 122.219,330.877 145.219,317.348 168.292,300.969 191.366,281.219 214.439,257.502 237.512,229.115 260.513,195.24 283.586,154.955 306.659,107.14 329.733,50.5079 336.003,32.2483"/>
   <polyline stroke-linecap="butt" stroke-linejoin="round" stroke-width="1.2" stroke="#000000" fill="none" points="76.0724,342.149 99.1457,330.74 122.219,316.787 145.219,299.805 168.292,279.221 191.366,254.374 214.439,224.488 237.512,188.653 260.513,145.808 283.586,94.7112 306.659,33.8889 307.183,32.2483"/>
   <polyline stroke-linecap="butt" stroke-linejoin="round" stroke-width="2" stroke="#00ff00" fill="none" stroke-dasharray="8,2,4,2,8,2,4,2" points="251.75,169.527 258.883,194.29 266.016,218.891 273.149,243.332 280.282,267.614 287.415,291.74 294.549,315.709 301.682,339.525 308.815,363.188 315.948,385.52"/>
   <polyline stroke-linecap="butt" stroke-linejoin="round" stroke-width="2" stroke="#0000ff" fill="none" points="206.407,235.497 231.814,252.649 257.221,269.711 282.628,286.684 308.035,303.568 333.442,320.365 358.849,337.075 384.256,353.699 409.663,370.237 435.07,386.689"/>
   <polyline stroke-linecap="butt" stroke-linejoin="round" stroke-width="2" stroke="#ff0000" fill="none" stroke-dasharray="8,2,4,2,8,2,4,2" points="205.606,236.56 231.601,253.59 257.595,270.532 283.59,287.386 309.584,304.152 335.579,320.832 361.574,337.426 387.568,353.935 413.562,370.36 439.557,386.701"/>
   <polyline stroke-linecap="butt" stroke-linejoin="round" stroke-width="2" stroke="#000000" fill="none" points="76.0724,371.901 99.1302,368.131 122.188,363.53 145.246,357.945 168.304,351.2 191.362,343.09 214.42,333.383 237.478,321.813 260.536,308.077 283.594,291.831 306.651,272.682 329.709,250.185 352.767,223.834 375.825,193.051 398.883,157.18 421.941,115.47 444.999,67.0604 459.307,32.2483"/>
   <polygon fill="#ff0000" shape-rendering="crispEdges" points="290.329,291.148 289.219,292.54 287.615,293.313 285.835,293.313 284.231,292.54 283.121,291.148 282.725,289.413 283.121,287.677 284.231,286.286 285.835,285.513 287.615,285.513 289.219,286.286 290.329,287.677 290.725,289.413"/>
   <polyline stroke-linecap="round" stroke-linejoin="round" stroke-width="0.5" stroke="#ff0000" fill="none" points="290.725,289.413 290.329,291.148 289.219,292.54 287.615,293.313 285.835,293.313 284.231,292.54 283.121,291.148 282.725,289.413 283.121,287.677 284.231,286.286 285.835,285.513 287.615,285.513 289.219,286.286 290.329,287.677 290.725,289.413"/>
   <polyline stroke-linecap="round" stroke-linejoin="round" stroke-width="0.5" stroke="#0000ff" fill="none" points="210.407,235.497 210.011,237.232 208.901,238.624 207.297,239.397 205.517,239.397 203.913,238.624 202.803,237.232 202.407,235.497 202.803,233.761 203.913,232.369 205.517,231.597 207.297,231.597 208.901,232.369 210.011,233.761 210.407,235.497"/>
   <polyline stroke-linecap="round" stroke-linejoin="round" stroke-width="0.5" stroke="#ff0000" fill="none" points="209.606,236.56 209.209,238.296 208.1,239.688 206.496,240.46 204.716,240.46 203.112,239.688 202.002,238.296 201.606,236.56 202.002,234.825 203.112,233.433 204.716,232.66 206.496,232.66 208.1,233.433 209.209,234.825 209.606,236.56"/>
   <polyline stroke-linecap="round" stroke-linejoin="round" stroke-width="0.5" stroke="#000000" fill="none" points="161.669,289.413 161.273,291.148 160.163,292.54 158.559,293.313 156.779,293.313 155.175,292.54 154.065,291.148 153.669,289.413 154.065,287.677 155.175,286.286 156.779,285.513 158.559,285.513 160.163,286.286 161.273,287.677 161.669,289.413"/>
   <polyline stroke-linecap="round" stroke-linejoin="round" stroke-width="0.5" stroke="#000000" fill="none" points="290.725,87.0596 290.329,88.7951 289.219,90.1869 287.615,90.9593 285.835,90.9593 284.231,90.1869 283.121,88.7951 282.725,87.0596 283.121,85.3241 284.231,83.9323 285.835,83.1599 287.615,83.1599 289.219,83.9323 290.329,85.3241 290.725,87.0596"/>
   <polyline stroke-linecap="butt" stroke-linejoin="round" stroke-width="0.5" stroke="#000000" fill="none" stroke-dasharray="9,7" points="157.669,386.701 157.669,289.413 514.611,289.413"/>
   <polyline stroke-linecap="butt" stroke-linejoin="round" stroke-width="0.5" stroke="#ff0000" fill="none" stroke-dasharray="9,7" points="205.606,386.701 205.606,236.56 514.611,236.56"/>
   <polyline stroke-linecap="butt" stroke-linejoin="round" stroke-width="0.5" stroke="#0000ff" fill="none" stroke-dasharray="8,3,2,3" points="206.407,386.701 206.407,235.497 514.611,235.497"/>
   <polyline stroke-linecap="butt" stroke-linejoin="round" stroke-width="0.5" stroke="#000000" fill="none" stroke-dasharray="8,3,2,3" points="286.726,386.701 286.726,87.0596 514.611,87.0596"/>
  </g>
 </g>
</svg>
