<?xml version='1.0' encoding='UTF-8' standalone='no'?>
<svg xmlns:xlink="http://www.w3.org/1999/xlink" height="434pt" width="585pt" viewBox="0 0 585 434" xmlns="http://www.w3.org/2000/svg">
 <title>Figure 1</title>
 <desc>
Creator: GL2PS 1.4.2, (C) 1999-2020 C. Geuzaine
For: Octave
CreationDate: Tue Nov 15 18:40:28 2022
</desc>
 <defs/>
 <polygon points="0,0 585,0 585,434 0,434" fill="#ffffff"/>
 <g>
  <polygon points="0,434 585,434 585,0 0,0" shape-rendering="crispEdges" fill="#ffffff"/>
  <clipPath id="cp00585434">
   <polygon points="0,434 585,434 585,0 0,0"/>
  </clipPath>
  <g clip-path="url(#cp00585434)">
   <polygon shape-rendering="crispEdges" points="514.172,386.701 76.0724,386.701 76.0724,32.6024 514.172,32.6024" fill="#ffffff"/>
   <polyline stroke="#262626" points="126.089,386.701 126.089,382.318" stroke-width="0.5" stroke-linejoin="miter" fill="none" stroke-linecap="butt"/>
   <polyline stroke="#262626" points="199.106,386.701 199.106,382.318" stroke-width="0.5" stroke-linejoin="miter" fill="none" stroke-linecap="butt"/>
   <polyline stroke="#262626" points="272.122,386.701 272.122,382.318" stroke-width="0.5" stroke-linejoin="miter" fill="none" stroke-linecap="butt"/>
   <polyline stroke="#262626" points="345.139,386.701 345.139,382.318" stroke-width="0.5" stroke-linejoin="miter" fill="none" stroke-linecap="butt"/>
   <polyline stroke="#262626" points="418.156,386.701 418.156,382.318" stroke-width="0.5" stroke-linejoin="miter" fill="none" stroke-linecap="butt"/>
   <polyline stroke="#262626" points="491.172,386.701 491.172,382.318" stroke-width="0.5" stroke-linejoin="miter" fill="none" stroke-linecap="butt"/>
   <g font-family="FreeSans" font-style="normal" xml:space="preserve" transform="translate(112.589,411.704) rotate(-0,13.5,-13)" font-weight="normal" font-size="16">
    <text x="0 9 18 " fill="rgb(38,38,38)" y="-0">280</text>
   </g>
   <g font-family="FreeSans" font-style="normal" xml:space="preserve" transform="translate(185.605,411.704) rotate(-0,13.5,-13)" font-weight="normal" font-size="16">
    <text x="0 9 18 " fill="rgb(38,38,38)" y="-0">290</text>
   </g>
   <g font-family="FreeSans" font-style="normal" xml:space="preserve" transform="translate(258.622,411.704) rotate(-0,13.5,-13)" font-weight="normal" font-size="16">
    <text x="0 9 18 " fill="rgb(38,38,38)" y="-0">300</text>
   </g>
   <g font-family="FreeSans" font-style="normal" xml:space="preserve" transform="translate(331.639,411.704) rotate(-0,13.5,-13)" font-weight="normal" font-size="16">
    <text x="0 9 18 " fill="rgb(38,38,38)" y="-0">310</text>
   </g>
   <g font-family="FreeSans" font-style="normal" xml:space="preserve" transform="translate(404.655,411.704) rotate(-0,13.5,-13)" font-weight="normal" font-size="16">
    <text x="0 9 18 " fill="rgb(38,38,38)" y="-0">320</text>
   </g>
   <g font-family="FreeSans" font-style="normal" xml:space="preserve" transform="translate(477.672,411.704) rotate(-0,13.5,-13)" font-weight="normal" font-size="16">
    <text x="0 9 18 " fill="rgb(38,38,38)" y="-0">330</text>
   </g>
   <polyline stroke="#262626" points="514.172,386.701 509.791,386.701" stroke-width="0.5" stroke-linejoin="miter" fill="none" stroke-linecap="butt"/>
   <polyline stroke="#262626" points="514.172,327.684 509.791,327.684" stroke-width="0.5" stroke-linejoin="miter" fill="none" stroke-linecap="butt"/>
   <polyline stroke="#262626" points="514.172,268.668 509.791,268.668" stroke-width="0.5" stroke-linejoin="miter" fill="none" stroke-linecap="butt"/>
   <polyline stroke="#262626" points="514.172,209.651 509.791,209.651" stroke-width="0.5" stroke-linejoin="miter" fill="none" stroke-linecap="butt"/>
   <polyline stroke="#262626" points="514.172,150.635 509.791,150.635" stroke-width="0.5" stroke-linejoin="miter" fill="none" stroke-linecap="butt"/>
   <polyline stroke="#262626" points="514.172,91.6187 509.791,91.6187" stroke-width="0.5" stroke-linejoin="miter" fill="none" stroke-linecap="butt"/>
   <g font-family="FreeSans" font-style="normal" xml:space="preserve" transform="translate(522.174,393.201) rotate(-0,-0,-6.5)" font-weight="normal" font-size="16">
    <text x="0 " fill="rgb(38,38,38)" y="-0">0</text>
   </g>
   <g font-family="FreeSans" font-style="normal" xml:space="preserve" transform="translate(522.174,334.184) rotate(-0,-0,-6.5)" font-weight="normal" font-size="16">
    <text x="0 9 13 22 31 " fill="rgb(38,38,38)" y="-0">0.005</text>
   </g>
   <g font-family="FreeSans" font-style="normal" xml:space="preserve" transform="translate(522.174,275.168) rotate(-0,-0,-6.5)" font-weight="normal" font-size="16">
    <text x="0 9 13 22 " fill="rgb(38,38,38)" y="-0">0.01</text>
   </g>
   <g font-family="FreeSans" font-style="normal" xml:space="preserve" transform="translate(522.174,216.151) rotate(-0,-0,-6.5)" font-weight="normal" font-size="16">
    <text x="0 9 13 22 31 " fill="rgb(38,38,38)" y="-0">0.015</text>
   </g>
   <g font-family="FreeSans" font-style="normal" xml:space="preserve" transform="translate(522.174,157.135) rotate(-0,-0,-6.5)" font-weight="normal" font-size="16">
    <text x="0 9 13 22 " fill="rgb(38,38,38)" y="-0">0.02</text>
   </g>
   <g font-family="FreeSans" font-style="normal" xml:space="preserve" transform="translate(522.174,98.1187) rotate(-0,-0,-6.5)" font-weight="normal" font-size="16">
    <text x="0 9 13 22 31 " fill="rgb(38,38,38)" y="-0">0.025</text>
   </g>
   <polyline stroke="#262626" points="514.172,386.701 76.0724,386.701" stroke-width="0.5" stroke-linejoin="miter" fill="none" stroke-dasharray="16,0" stroke-linecap="square"/>
   <polyline stroke="#262626" points="514.172,386.701 514.172,32.6024" stroke-width="0.5" stroke-linejoin="miter" fill="none" stroke-dasharray="16,0" stroke-linecap="square"/>
   <g font-family="FreeSans" font-style="normal" xml:space="preserve" transform="translate(197.622,434.704) rotate(-0,97.5,-18)" font-weight="normal" font-size="17.6">
    <text x="0 12 18 26 30 42 51 55 65 69 80 89 103 113 122 128 138 143 152 158 167 171 177 189 " fill="rgb(38,38,38)" y="-4">Dry Bulb Temperature (K)</text>
   </g>
   <g font-family="FreeSans" font-style="normal" xml:space="preserve" transform="translate(450.174,227.651) rotate(-90,117,-18)" font-weight="normal" font-size="17.6">
    <text x="0 13 22 36 40 50 54 59 67 71 77 86 96 100 109 119 129 138 144 148 153 157 166 176 180 190 196 204 208 218 222 228 " fill="rgb(38,38,38)" y="-4">Humidity (kg vapor / kg dry air)</text>
   </g>
   <polyline stroke="#000000" points="83.374,384.32 87.7256,384.215 92.0771,384.107 96.4285,383.995 100.78,383.878 105.132,383.757 109.483,383.631 113.835,383.501 118.186,383.365 122.538,383.225 126.889,383.079 131.241,382.928 135.592,382.772 139.944,382.61 144.295,382.442 148.646,382.267 152.998,382.087 157.35,381.9 161.701,381.707 166.053,381.507 170.404,381.299 174.756,381.085 179.107,380.863 183.458,380.633 187.81,380.396 192.161,380.15 196.513,379.896 200.865,379.633 205.216,379.361 209.568,379.081 213.919,378.791 218.271,378.491 222.622,378.181 226.974,377.861 231.325,377.531 235.677,377.19 240.028,376.838 244.38,376.474 248.731,376.099 253.083,375.712 257.434,375.313 261.786,374.9 266.137,374.475 270.489,374.037 274.84,373.585 279.191,373.119 283.543,372.638 287.895,372.143 292.246,371.633 296.598,371.107 300.949,370.565 305.301,370.007 309.652,369.432 314.004,368.84 318.355,368.23 322.706,367.603 327.058,366.956 331.41,366.291 335.761,365.607 340.113,364.902 344.464,364.178 348.816,363.432 353.167,362.665 357.519,361.876 361.87,361.065 366.222,360.231 370.573,359.374 374.924,358.492 379.276,357.586 383.628,356.655 387.979,355.698 392.331,354.715 396.682,353.705 401.034,352.667 405.385,351.601 409.737,350.507 414.088,349.383 418.44,348.229 422.791,347.044 427.143,345.828 431.494,344.579 435.846,343.298 440.197,341.983 444.549,340.634 448.9,339.25 453.252,337.83 457.603,336.374 461.954,334.88 466.306,333.348 470.658,331.777 475.009,330.166 479.361,328.515 483.712,326.822 488.064,325.087 492.415,323.309 496.767,321.486 501.118,319.619 505.469,317.705 509.821,315.745 514.172,313.736" stroke-width="1" stroke-linejoin="round" fill="none" stroke-linecap="butt"/>
   <polyline stroke="#000000" points="83.374,381.937 87.7256,381.728 92.0771,381.512 96.4285,381.287 100.78,381.053 105.132,380.811 109.483,380.559 113.835,380.298 118.186,380.027 122.538,379.746 126.889,379.454 131.241,379.152 135.592,378.839 139.944,378.514 144.295,378.178 148.646,377.829 152.998,377.468 157.35,377.094 161.701,376.707 166.053,376.305 170.404,375.89 174.756,375.461 179.107,375.016 183.458,374.556 187.81,374.08 192.161,373.587 196.513,373.078 200.865,372.552 205.216,372.008 209.568,371.445 213.919,370.864 218.271,370.263 222.622,369.642 226.974,369.001 231.325,368.339 235.677,367.655 240.028,366.949 244.38,366.22 248.731,365.467 253.083,364.691 257.434,363.889 261.786,363.062 266.137,362.21 270.489,361.33 274.84,360.423 279.191,359.487 283.543,358.522 287.895,357.528 292.246,356.503 296.598,355.447 300.949,354.359 305.301,353.237 309.652,352.082 314.004,350.892 318.355,349.667 322.706,348.405 327.058,347.106 331.41,345.768 335.761,344.392 340.113,342.975 344.464,341.516 348.816,340.016 353.167,338.472 357.519,336.884 361.87,335.25 366.222,333.57 370.573,331.843 374.924,330.066 379.276,328.24 383.628,326.362 387.979,324.432 392.331,322.449 396.682,320.411 401.034,318.316 405.385,316.165 409.737,313.954 414.088,311.684 418.44,309.351 422.791,306.956 427.143,304.497 431.494,301.972 435.846,299.379 440.197,296.718 444.549,293.986 448.9,291.182 453.252,288.305 457.603,285.352 461.954,282.322 466.306,279.214 470.658,276.025 475.009,272.755 479.361,269.4 483.712,265.959 488.064,262.431 492.415,258.812 496.767,255.103 501.118,251.299 505.469,247.4 509.821,243.404 514.172,239.307" stroke-width="1" stroke-linejoin="round" fill="none" stroke-linecap="butt"/>
   <polyline stroke="#000000" points="83.374,377.167 87.7256,376.749 92.0771,376.315 96.4285,375.865 100.78,375.397 105.132,374.911 109.483,374.407 113.835,373.884 118.186,373.341 122.538,372.778 126.889,372.194 131.241,371.588 135.592,370.96 139.944,370.31 144.295,369.635 148.646,368.936 152.998,368.212 157.35,367.462 161.701,366.685 166.053,365.881 170.404,365.048 174.756,364.186 179.107,363.294 183.458,362.371 187.81,361.415 192.161,360.427 196.513,359.405 200.865,358.348 205.216,357.256 209.568,356.126 213.919,354.958 218.271,353.751 222.622,352.504 226.974,351.216 231.325,349.885 235.677,348.51 240.028,347.09 244.38,345.624 248.731,344.111 253.083,342.548 257.434,340.936 261.786,339.272 266.137,337.555 270.489,335.783 274.84,333.956 279.191,332.071 283.543,330.127 287.895,328.123 292.246,326.056 296.598,323.926 300.949,321.731 305.301,319.468 309.652,317.136 314.004,314.733 318.355,312.258 322.706,309.708 327.058,307.082 331.41,304.377 335.761,301.592 340.113,298.724 344.464,295.772 348.816,292.733 353.167,289.605 357.519,286.386 361.87,283.074 366.222,279.665 370.573,276.158 374.924,272.551 379.276,268.84 383.628,265.024 387.979,261.099 392.331,257.063 396.682,252.913 401.034,248.646 405.385,244.26 409.737,239.751 414.088,235.117 418.44,230.355 422.791,225.461 427.143,220.431 431.494,215.264 435.846,209.955 440.197,204.502 444.549,198.9 448.9,193.145 453.252,187.235 457.603,181.166 461.954,174.933 466.306,168.533 470.658,161.962 475.009,155.216 479.361,148.289 483.712,141.179 488.064,133.881 492.415,126.389 496.767,118.701 501.118,110.81 505.469,102.711 509.821,94.401 514.172,85.8735" stroke-width="1" stroke-linejoin="round" fill="none" stroke-linecap="butt"/>
   <polyline stroke="#000000" points="83.374,367.609 87.7256,366.771 92.0771,365.901 96.4285,364.997 100.78,364.058 105.132,363.084 109.483,362.072 113.835,361.022 118.186,359.932 122.538,358.802 126.889,357.63 131.241,356.413 135.592,355.152 139.944,353.845 144.295,352.49 148.646,351.086 152.998,349.63 157.35,348.122 161.701,346.56 166.053,344.943 170.404,343.268 174.756,341.533 179.107,339.737 183.458,337.879 187.81,335.956 192.161,333.965 196.513,331.906 200.865,329.776 205.216,327.573 209.568,325.295 213.919,322.94 218.271,320.505 222.622,317.987 226.974,315.386 231.325,312.697 235.677,309.92 240.028,307.05 244.38,304.085 248.731,301.023 253.083,297.862 257.434,294.597 261.786,291.226 266.137,287.746 270.489,284.154 274.84,280.447 279.191,276.622 283.543,272.675 287.895,268.603 292.246,264.402 296.598,260.069 300.949,255.6 305.301,250.992 309.652,246.24 314.004,241.341 318.355,236.29 322.706,231.083 327.058,225.717 331.41,220.186 335.761,214.487 340.113,208.614 344.464,202.563 348.816,196.329 353.167,189.907 357.519,183.293 361.87,176.479 366.222,169.462 370.573,162.236 374.924,154.795 379.276,147.134 383.628,139.245 387.979,131.124 392.331,122.764 396.682,114.158 401.034,105.3 405.385,96.1826 409.737,86.7991 414.088,77.1423 418.44,67.2047 422.791,56.9785 427.143,46.4561 431.494,35.6292 432.815,32.2483" stroke-width="1" stroke-linejoin="round" fill="none" stroke-linecap="butt"/>
   <polyline stroke="#000000" points="83.374,358.026 87.7256,356.766 92.0771,355.457 96.4285,354.097 100.78,352.685 105.132,351.218 109.483,349.696 113.835,348.115 118.186,346.475 122.538,344.773 126.889,343.008 131.241,341.176 135.592,339.277 139.944,337.307 144.295,335.265 148.646,333.148 152.998,330.954 157.35,328.681 161.701,326.325 166.053,323.885 170.404,321.358 174.756,318.74 179.107,316.03 183.458,313.224 187.81,310.319 192.161,307.312 196.513,304.201 200.865,300.982 205.216,297.651 209.568,294.206 213.919,290.642 218.271,286.957 222.622,283.146 226.974,279.206 231.325,275.134 235.677,270.924 240.028,266.573 244.38,262.076 248.731,257.431 253.083,252.631 257.434,247.673 261.786,242.551 266.137,237.262 270.489,231.799 274.84,226.159 279.191,220.336 283.543,214.324 287.895,208.118 292.246,201.712 296.598,195.101 300.949,188.279 305.301,181.239 309.652,173.975 314.004,166.481 318.355,158.749 322.706,150.774 327.058,142.548 331.41,134.064 335.761,125.314 340.113,116.291 344.464,106.986 348.816,97.3924 353.167,87.5005 357.519,77.302 361.87,66.7881 366.222,55.9495 370.573,44.7767 374.924,33.26 375.295,32.2483" stroke-width="1" stroke-linejoin="round" fill="none" stroke-linecap="butt"/>
   <polyline stroke="#000000" points="83.374,348.418 87.7256,346.734 92.0771,344.983 96.4285,343.165 100.78,341.276 105.132,339.314 109.483,337.278 113.835,335.163 118.186,332.968 122.538,330.691 126.889,328.327 131.241,325.875 135.592,323.332 139.944,320.694 144.295,317.959 148.646,315.123 152.998,312.184 157.35,309.137 161.701,305.979 166.053,302.707 170.404,299.318 174.756,295.806 179.107,292.17 183.458,288.404 187.81,284.504 192.161,280.467 196.513,276.288 200.865,271.962 205.216,267.486 209.568,262.854 213.919,258.062 218.271,253.104 222.622,247.976 226.974,242.672 231.325,237.187 235.677,231.516 240.028,225.652 244.38,219.589 248.731,213.323 253.083,206.846 257.434,200.152 261.786,193.235 266.137,186.087 270.489,178.703 274.84,171.073 279.191,163.192 283.543,155.051 287.895,146.643 292.246,137.96 296.598,128.992 300.949,119.733 305.301,110.171 309.652,100.3 314.004,90.1081 318.355,79.5869 322.706,68.726 327.058,57.5149 331.41,45.9431 335.761,33.9994 336.379,32.2483" stroke-width="1" stroke-linejoin="round" fill="none" stroke-linecap="butt"/>
   <polyline stroke="#000000" points="83.374,338.785 87.7256,336.674 92.0771,334.48 96.4285,332.2 100.78,329.832 105.132,327.372 109.483,324.818 113.835,322.166 118.186,319.412 122.538,316.555 126.889,313.589 131.241,310.511 135.592,307.319 139.944,304.007 144.295,300.572 148.646,297.01 152.998,293.317 157.35,289.489 161.701,285.521 166.053,281.408 170.404,277.146 174.756,272.73 179.107,268.155 183.458,263.417 187.81,258.509 192.161,253.426 196.513,248.164 200.865,242.715 205.216,237.075 209.568,231.237 213.919,225.195 218.271,218.942 222.622,212.472 226.974,205.778 231.325,198.852 235.677,191.689 240.028,184.279 244.38,176.616 248.731,168.691 253.083,160.497 257.434,152.024 261.786,143.265 266.137,134.209 270.489,124.848 274.84,115.173 279.191,105.172 283.543,94.8367 287.895,84.1557 292.246,73.1183 296.598,61.7132 300.949,49.9287 305.301,37.7529 307.205,32.2483" stroke-width="1" stroke-linejoin="round" fill="none" stroke-linecap="butt"/>
   <polyline stroke="#ff0000" points="78.4631,341.072 86.2621,346.174 94.0609,351.268 101.86,356.354 109.659,361.432 117.458,366.501 125.257,371.563 133.056,376.617 140.855,381.663 148.654,386.701" stroke-width="1" stroke-linejoin="round" fill="none" stroke-dasharray="8,3,2,3" stroke-linecap="butt"/>
   <polyline stroke="#ff0000" points="117.747,319.695 129.246,327.209 140.745,334.706 152.243,342.186 163.742,349.648 175.24,357.093 186.739,364.52 198.238,371.931 209.736,379.324 221.235,386.701" stroke-width="1" stroke-linejoin="round" fill="none" stroke-dasharray="8,3,2,3" stroke-linecap="butt"/>
   <polyline stroke="#ff0000" points="151.325,294.754 167.157,305.1 182.989,315.414 198.822,325.695 214.654,335.944 230.486,346.16 246.319,356.343 262.151,366.494 277.984,376.613 293.816,386.701" stroke-width="1" stroke-linejoin="round" fill="none" stroke-dasharray="8,3,2,3" stroke-linecap="butt"/>
   <polyline stroke="#ff0000" points="180.246,266.931 200.93,280.46 221.613,293.933 242.297,307.35 262.98,320.712 283.663,334.019 304.347,347.271 325.03,360.468 345.714,373.611 366.397,386.701" stroke-width="1" stroke-linejoin="round" fill="none" stroke-dasharray="8,3,2,3" stroke-linecap="butt"/>
   <polyline stroke="#ff0000" points="205.418,236.808 231.369,253.81 257.32,270.723 283.272,287.548 309.223,304.287 335.174,320.94 361.125,337.506 387.076,353.989 413.027,370.386 438.978,386.701" stroke-width="1" stroke-linejoin="round" fill="none" stroke-dasharray="8,3,2,3" stroke-linecap="butt"/>
   <polyline stroke="#ff0000" points="227.567,204.847 259.122,225.563 290.676,246.149 322.231,266.605 353.786,286.934 385.341,307.136 416.895,327.212 448.45,347.165 480.005,366.994 511.56,386.701" stroke-width="1" stroke-linejoin="round" fill="none" stroke-dasharray="8,3,2,3" stroke-linecap="butt"/>
   <polyline stroke="#ff0000" points="247.258,171.404 284.689,196.04 322.121,220.493 359.552,244.765 396.984,268.858 434.415,292.773 471.847,316.513 509.278,340.08 514.611,343.413" stroke-width="1" stroke-linejoin="round" fill="none" stroke-dasharray="8,3,2,3" stroke-linecap="butt"/>
   <polyline stroke="#ff0000" points="264.929,136.754 308.461,165.488 351.994,193.975 395.526,222.216 439.059,250.216 482.592,277.978 514.611,298.224" stroke-width="1" stroke-linejoin="round" fill="none" stroke-dasharray="8,3,2,3" stroke-linecap="butt"/>
   <polyline stroke="#ff0000" points="280.92,101.108 330.74,134.096 380.561,166.76 430.381,199.103 480.201,231.131 514.611,253.038" stroke-width="1" stroke-linejoin="round" fill="none" stroke-dasharray="8,3,2,3" stroke-linecap="butt"/>
   <polyline stroke="#ff0000" points="295.497,64.6323 351.763,102.013 408.028,138.98 464.293,175.539 514.611,207.875" stroke-width="1" stroke-linejoin="round" fill="none" stroke-dasharray="8,3,2,3" stroke-linecap="butt"/>
   <polyline stroke="#ff0000" points="316.061,32.2483 371.717,69.3559 434.56,110.739 497.404,151.614 514.611,162.669" stroke-width="1" stroke-linejoin="round" fill="none" stroke-dasharray="8,3,2,3" stroke-linecap="butt"/>
   <polyline stroke="#ff0000" points="384.822,32.2483 390.753,36.2171 460.29,82.1178 514.611,117.489" stroke-width="1" stroke-linejoin="round" fill="none" stroke-dasharray="8,3,2,3" stroke-linecap="butt"/>
   <polyline stroke="#ff0000" points="453.687,32.2483 485.323,53.1834 514.611,72.2776" stroke-width="1" stroke-linejoin="round" fill="none" stroke-dasharray="8,3,2,3" stroke-linecap="butt"/>
   <polyline stroke="#00ff00" points="79.5079,340.594 80.9002,345.727 82.2924,350.86 83.6846,355.993 85.0769,361.126 86.4691,366.259 87.8614,371.302 89.2536,376.435 90.6458,381.568 92.0381,386.61" stroke-width="1" stroke-linejoin="round" fill="none" stroke-dasharray="8,3,2,3" stroke-linecap="butt"/>
   <polyline stroke="#00ff00" points="123.849,315.65 126.041,323.574 128.233,331.589 130.425,339.423 132.618,347.348 134.81,355.272 137.002,363.107 139.194,370.941 141.386,378.776 143.578,386.61" stroke-width="1" stroke-linejoin="round" fill="none" stroke-dasharray="8,3,2,3" stroke-linecap="butt"/>
   <polyline stroke="#00ff00" points="165.434,281.97 168.734,293.767 172.034,305.474 175.334,317.181 178.634,328.887 181.935,340.504 185.235,352.031 188.535,363.647 191.836,375.174 195.136,386.61" stroke-width="1" stroke-linejoin="round" fill="none" stroke-dasharray="8,3,2,3" stroke-linecap="butt"/>
   <polyline stroke="#00ff00" points="203.931,238.745 208.682,255.495 213.434,272.155 218.185,288.724 222.936,305.204 227.687,321.593 232.439,337.982 237.19,354.282 241.941,370.491 246.693,386.61" stroke-width="1" stroke-linejoin="round" fill="none" stroke-dasharray="8,3,2,3" stroke-linecap="butt"/>
   <polyline stroke="#00ff00" points="239.191,185.705 245.751,208.578 252.311,231.271 258.872,253.874 265.432,276.387 271.992,298.63 278.552,320.873 285.113,342.935 291.673,364.818 298.233,386.61" stroke-width="1" stroke-linejoin="round" fill="none" stroke-dasharray="8,3,2,3" stroke-linecap="butt"/>
   <polyline stroke="#00ff00" points="271.23,123.254 279.957,153.466 288.685,183.364 297.411,213.081 306.138,242.618 314.866,271.839 323.592,300.881 332.32,329.698 341.047,358.244 349.774,386.61" stroke-width="1" stroke-linejoin="round" fill="none" stroke-dasharray="8,3,2,3" stroke-linecap="butt"/>
   <polyline stroke="#00ff00" points="300.199,51.9779 311.436,90.6552 322.672,128.972 333.909,166.884 345.146,204.436 356.383,241.537 367.62,278.368 378.857,314.839 390.094,350.86 401.331,386.61" stroke-width="1" stroke-linejoin="round" fill="none" stroke-dasharray="8,3,2,3" stroke-linecap="butt"/>
   <polyline stroke="#00ff00" points="343.707,32.2483 354.478,68.8176 368.537,115.87 382.595,162.381 396.654,208.308 410.712,253.694 424.771,298.54 438.829,342.845 452.888,386.61" stroke-width="1" stroke-linejoin="round" fill="none" stroke-dasharray="8,3,2,3" stroke-linecap="butt"/>
   <polyline stroke="#00ff00" points="392.895,32.2483 401.477,60.803 418.635,117.085 435.794,172.557 452.952,227.264 470.111,281.16 487.27,334.29 504.428,386.61" stroke-width="1" stroke-linejoin="round" fill="none" stroke-dasharray="8,3,2,3" stroke-linecap="butt"/>
   <polyline stroke="#00ff00" points="442.086,32.2483 453.421,69.1778 473.931,134.826 494.44,199.393 514.611,261.83" stroke-width="1" stroke-linejoin="round" fill="none" stroke-dasharray="8,3,2,3" stroke-linecap="butt"/>
   <polyline stroke="#0000ff" points="112.581,322.854 123.419,329.968 134.258,337.172 145.096,344.286 155.934,351.4 166.773,358.424 177.611,365.448 188.45,372.562 199.288,379.586 210.126,386.61" stroke-width="1" stroke-linejoin="round" fill="none" stroke-linecap="butt"/>
   <polyline stroke="#0000ff" points="149.089,296.559 164.324,306.734 179.558,316.82 194.793,326.906 210.028,336.902 225.262,346.898 240.497,356.803 255.731,366.799 270.966,376.705 286.2,386.52" stroke-width="1" stroke-linejoin="round" fill="none" stroke-linecap="butt"/>
   <polyline stroke="#0000ff" points="185.597,260.988 206.773,275.216 227.949,289.264 249.125,303.403 270.3,317.451 291.476,331.409 312.652,345.277 333.828,359.145 355.003,372.923 376.179,386.61" stroke-width="1" stroke-linejoin="round" fill="none" stroke-linecap="butt"/>
   <polyline stroke="#0000ff" points="222.106,213.171 251.184,232.892 280.261,252.523 309.339,271.974 338.417,291.426 367.495,310.697 396.572,329.788 425.65,348.879 454.728,367.79 483.805,386.61" stroke-width="1" stroke-linejoin="round" fill="none" stroke-linecap="butt"/>
   <polyline stroke="#0000ff" points="258.614,149.594 298.164,176.79 337.714,203.805 377.263,230.551 416.813,257.026 456.363,283.411 495.913,309.526 514.611,321.745" stroke-width="1" stroke-linejoin="round" fill="none" stroke-linecap="butt"/>
   <polyline stroke="#0000ff" points="295.122,65.5757 348.457,102.857 401.791,139.688 455.126,176.159 508.46,212.18 514.611,216.292" stroke-width="1" stroke-linejoin="round" fill="none" stroke-linecap="butt"/>
   <polyline stroke="#0000ff" points="440.702,32.2483 474.337,55.8501 514.611,83.704" stroke-width="1" stroke-linejoin="round" fill="none" stroke-linecap="butt"/>
   <polyline stroke="#000000" points="83.374,373.825 87.7256,373.26 92.0771,372.674 96.4285,372.065 100.78,371.432 105.132,370.776 109.483,370.094 113.835,369.387 118.186,368.653 122.538,367.892 126.889,367.103 131.241,366.284 135.592,365.435 139.944,364.555 144.295,363.643 148.646,362.698 152.998,361.719 157.35,360.705 161.701,359.654 166.053,358.566 170.404,357.44 174.756,356.273 179.107,355.066 183.458,353.817 187.81,352.524 192.161,351.187 196.513,349.804 200.865,348.373 205.216,346.894 209.568,345.364 213.919,343.783 218.271,342.149 222.622,340.46 226.974,338.715 231.325,336.912 235.677,335.049 240.028,333.125 244.38,331.138 248.731,329.087 253.083,326.969 257.434,324.783 261.786,322.526 266.137,320.198 270.489,317.795 274.84,315.315 279.191,312.758 283.543,310.12 287.895,307.399 292.246,304.594 296.598,301.701 300.949,298.719 305.301,295.644 309.652,292.476 314.004,289.21 318.355,285.845 322.706,282.378 327.058,278.806 331.41,275.126 335.761,271.336 340.113,267.433 344.464,263.413 348.816,259.274 353.167,255.013 357.519,250.626 361.87,246.11 366.222,241.462 370.573,236.678 374.924,231.755 379.276,226.69 383.628,221.478 387.979,216.117 392.331,210.601 396.682,204.928 401.034,199.092 405.385,193.091 409.737,186.92 414.088,180.574 418.44,174.049 422.791,167.34 427.143,160.444 431.494,153.354 435.846,146.067 440.197,138.577 444.549,130.879 448.9,122.967 453.252,114.837 457.603,106.483 461.954,97.8989 466.306,89.0791 470.658,80.0176 475.009,70.7083 479.361,61.1449 483.712,51.3209 488.064,41.2296 491.834,32.2483" stroke-width="2" stroke-linejoin="round" fill="none" stroke-linecap="butt"/>
   <polyline stroke="#ff0000" points="275.072,114.647 322.504,146.014 369.935,177.088 417.366,207.872 464.797,238.369 512.228,268.584 514.611,270.088" stroke-width="2" stroke-linejoin="round" fill="none" stroke-dasharray="8,2,4,2,8,2,4,2" stroke-linecap="butt"/>
   <polyline stroke="#00ff00" points="351.976,32.2483 359.63,58.1915 374.189,106.91 388.749,154.997 403.308,202.455 417.867,249.372 432.426,295.658 446.985,341.404 461.545,386.61" stroke-width="2" stroke-linejoin="round" fill="none" stroke-dasharray="8,2,4,2,8,2,4,2" stroke-linecap="butt"/>
   <polyline stroke="#0000ff" points="276.427,111.502 322.242,143.2 368.057,174.719 413.872,205.786 459.688,236.674 505.503,267.202 514.611,273.217" stroke-width="2" stroke-linejoin="round" fill="none" stroke-linecap="butt"/>
   <polygon shape-rendering="crispEdges" points="405.477,199.584 404.367,200.976 402.763,201.748 400.983,201.748 399.379,200.976 398.269,199.584 397.873,197.848 398.269,196.113 399.379,194.721 400.983,193.948 402.763,193.948 404.367,194.721 405.477,196.113 405.873,197.848" fill="#ff0000"/>
   <polyline stroke="#ff0000" points="405.873,197.848 405.477,199.584 404.367,200.976 402.763,201.748 400.983,201.748 399.379,200.976 398.269,199.584 397.873,197.848 398.269,196.113 399.379,194.721 400.983,193.948 402.763,193.948 404.367,194.721 405.477,196.113 405.873,197.848" stroke-width="0.5" stroke-linejoin="round" fill="none" stroke-linecap="round"/>
   <polygon shape-rendering="crispEdges" points="280.03,113.3 278.92,114.692 277.316,115.464 275.536,115.464 273.932,114.692 272.823,113.3 272.426,111.564 272.823,109.829 273.932,108.437 275.536,107.665 277.316,107.665 278.92,108.437 280.03,109.829 280.426,111.564" fill="#ff0000"/>
   <polyline stroke="#ff0000" points="280.426,111.564 280.03,113.3 278.92,114.692 277.316,115.464 275.536,115.464 273.932,114.692 272.823,113.3 272.426,111.564 272.823,109.829 273.932,108.437 275.536,107.665 277.316,107.665 278.92,108.437 280.03,109.829 280.426,111.564" stroke-width="0.5" stroke-linejoin="round" fill="none" stroke-linecap="round"/>
   <polygon shape-rendering="crispEdges" points="235.56,199.584 234.45,200.976 232.846,201.748 231.066,201.748 229.462,200.976 228.352,199.584 227.956,197.848 228.352,196.113 229.462,194.721 231.066,193.948 232.846,193.948 234.45,194.721 235.56,196.113 235.956,197.848" fill="#ff0000"/>
   <polyline stroke="#ff0000" points="235.956,197.848 235.56,199.584 234.45,200.976 232.846,201.748 231.066,201.748 229.462,200.976 228.352,199.584 227.956,197.848 228.352,196.113 229.462,194.721 231.066,193.948 232.846,193.948 234.45,194.721 235.56,196.113 235.956,197.848" stroke-width="0.5" stroke-linejoin="round" fill="none" stroke-linecap="round"/>
   <polyline stroke="#ff0000" points="231.956,386.701 231.956,197.848 514.611,197.848" stroke-width="0.5" stroke-linejoin="round" fill="none" stroke-dasharray="9,7" stroke-linecap="butt"/>
   <polyline stroke="#ff0000" points="276.427,386.701 276.427,111.564 514.611,111.564" stroke-width="0.5" stroke-linejoin="round" fill="none" stroke-dasharray="9,7" stroke-linecap="butt"/>
  </g>
 </g>
</svg>
