<?xml version='1.0' encoding='UTF-8' standalone='no'?>
<svg xmlns="http://www.w3.org/2000/svg" height="434pt" xmlns:xlink="http://www.w3.org/1999/xlink" width="585pt" viewBox="0 0 585 434">
 <title>Figure 1</title>
 <desc>
Creator: GL2PS 1.4.2, (C) 1999-2020 C. Geuzaine
For: Octave
CreationDate: Sun Nov 20 08:27:18 2022
</desc>
 <defs/>
 <polygon points="0,0 585,0 585,434 0,434" fill="#ffffff"/>
 <g>
  <polygon points="0,434 585,434 585,0 0,0" fill="#ffffff" shape-rendering="crispEdges"/>
  <clipPath id="cp00585434">
   <polygon points="0,434 585,434 585,0 0,0"/>
  </clipPath>
  <g clip-path="url(#cp00585434)">
   <polygon points="514.172,386.701 76.0724,386.701 76.0724,32.6024 514.172,32.6024" fill="#ffffff" shape-rendering="crispEdges"/>
   <polyline points="126.089,386.701 126.089,382.318" stroke="#262626" stroke-width="0.5" fill="none" stroke-linecap="butt" stroke-linejoin="miter"/>
   <polyline points="199.106,386.701 199.106,382.318" stroke="#262626" stroke-width="0.5" fill="none" stroke-linecap="butt" stroke-linejoin="miter"/>
   <polyline points="272.122,386.701 272.122,382.318" stroke="#262626" stroke-width="0.5" fill="none" stroke-linecap="butt" stroke-linejoin="miter"/>
   <polyline points="345.139,386.701 345.139,382.318" stroke="#262626" stroke-width="0.5" fill="none" stroke-linecap="butt" stroke-linejoin="miter"/>
   <polyline points="418.156,386.701 418.156,382.318" stroke="#262626" stroke-width="0.5" fill="none" stroke-linecap="butt" stroke-linejoin="miter"/>
   <polyline points="491.172,386.701 491.172,382.318" stroke="#262626" stroke-width="0.5" fill="none" stroke-linecap="butt" stroke-linejoin="miter"/>
   <g xml:space="preserve" font-family="FreeSans" transform="translate(112.589,411.704) rotate(-0,13.5,-13)" font-weight="normal" font-size="16" font-style="normal">
    <text fill="rgb(38,38,38)" x="0 9 18 " y="-0">280</text>
   </g>
   <g xml:space="preserve" font-family="FreeSans" transform="translate(185.605,411.704) rotate(-0,13.5,-13)" font-weight="normal" font-size="16" font-style="normal">
    <text fill="rgb(38,38,38)" x="0 9 18 " y="-0">290</text>
   </g>
   <g xml:space="preserve" font-family="FreeSans" transform="translate(258.622,411.704) rotate(-0,13.5,-13)" font-weight="normal" font-size="16" font-style="normal">
    <text fill="rgb(38,38,38)" x="0 9 18 " y="-0">300</text>
   </g>
   <g xml:space="preserve" font-family="FreeSans" transform="translate(331.639,411.704) rotate(-0,13.5,-13)" font-weight="normal" font-size="16" font-style="normal">
    <text fill="rgb(38,38,38)" x="0 9 18 " y="-0">310</text>
   </g>
   <g xml:space="preserve" font-family="FreeSans" transform="translate(404.655,411.704) rotate(-0,13.5,-13)" font-weight="normal" font-size="16" font-style="normal">
    <text fill="rgb(38,38,38)" x="0 9 18 " y="-0">320</text>
   </g>
   <g xml:space="preserve" font-family="FreeSans" transform="translate(477.672,411.704) rotate(-0,13.5,-13)" font-weight="normal" font-size="16" font-style="normal">
    <text fill="rgb(38,38,38)" x="0 9 18 " y="-0">330</text>
   </g>
   <polyline points="514.172,386.701 509.791,386.701" stroke="#262626" stroke-width="0.5" fill="none" stroke-linecap="butt" stroke-linejoin="miter"/>
   <polyline points="514.172,327.684 509.791,327.684" stroke="#262626" stroke-width="0.5" fill="none" stroke-linecap="butt" stroke-linejoin="miter"/>
   <polyline points="514.172,268.668 509.791,268.668" stroke="#262626" stroke-width="0.5" fill="none" stroke-linecap="butt" stroke-linejoin="miter"/>
   <polyline points="514.172,209.651 509.791,209.651" stroke="#262626" stroke-width="0.5" fill="none" stroke-linecap="butt" stroke-linejoin="miter"/>
   <polyline points="514.172,150.635 509.791,150.635" stroke="#262626" stroke-width="0.5" fill="none" stroke-linecap="butt" stroke-linejoin="miter"/>
   <polyline points="514.172,91.6187 509.791,91.6187" stroke="#262626" stroke-width="0.5" fill="none" stroke-linecap="butt" stroke-linejoin="miter"/>
   <g xml:space="preserve" font-family="FreeSans" transform="translate(522.174,393.201) rotate(-0,-0,-6.5)" font-weight="normal" font-size="16" font-style="normal">
    <text fill="rgb(38,38,38)" x="0 " y="-0">0</text>
   </g>
   <g xml:space="preserve" font-family="FreeSans" transform="translate(522.174,334.184) rotate(-0,-0,-6.5)" font-weight="normal" font-size="16" font-style="normal">
    <text fill="rgb(38,38,38)" x="0 9 13 22 31 " y="-0">0.005</text>
   </g>
   <g xml:space="preserve" font-family="FreeSans" transform="translate(522.174,275.168) rotate(-0,-0,-6.5)" font-weight="normal" font-size="16" font-style="normal">
    <text fill="rgb(38,38,38)" x="0 9 13 22 " y="-0">0.01</text>
   </g>
   <g xml:space="preserve" font-family="FreeSans" transform="translate(522.174,216.151) rotate(-0,-0,-6.5)" font-weight="normal" font-size="16" font-style="normal">
    <text fill="rgb(38,38,38)" x="0 9 13 22 31 " y="-0">0.015</text>
   </g>
   <g xml:space="preserve" font-family="FreeSans" transform="translate(522.174,157.135) rotate(-0,-0,-6.5)" font-weight="normal" font-size="16" font-style="normal">
    <text fill="rgb(38,38,38)" x="0 9 13 22 " y="-0">0.02</text>
   </g>
   <g xml:space="preserve" font-family="FreeSans" transform="translate(522.174,98.1187) rotate(-0,-0,-6.5)" font-weight="normal" font-size="16" font-style="normal">
    <text fill="rgb(38,38,38)" x="0 9 13 22 31 " y="-0">0.025</text>
   </g>
   <polyline points="514.172,386.701 76.0724,386.701" stroke="#262626" stroke-width="0.5" fill="none" stroke-linecap="square" stroke-dasharray="16,0" stroke-linejoin="miter"/>
   <polyline points="514.172,386.701 514.172,32.6024" stroke="#262626" stroke-width="0.5" fill="none" stroke-linecap="square" stroke-dasharray="16,0" stroke-linejoin="miter"/>
   <g xml:space="preserve" font-family="FreeSans" transform="translate(197.622,434.704) rotate(-0,97.5,-18)" font-weight="normal" font-size="17.6" font-style="normal">
    <text fill="rgb(38,38,38)" x="0 12 18 26 30 42 51 55 65 69 80 89 103 113 122 128 138 143 152 158 167 171 177 189 " y="-4">Dry Bulb Temperature (K)</text>
   </g>
   <g xml:space="preserve" font-family="FreeSans" transform="translate(450.174,227.651) rotate(-90,117,-18)" font-weight="normal" font-size="17.6" font-style="normal">
    <text fill="rgb(38,38,38)" x="0 13 22 36 40 50 54 59 67 71 77 86 96 100 109 119 129 138 144 148 153 157 166 176 180 190 196 204 208 218 222 228 " y="-4">Humidity (kg vapor / kg dry air)</text>
   </g>
   <polyline points="79.5064,340.594 82.6414,352.121 85.7766,363.647 88.9116,375.174 92.0467,386.61" stroke="#00ff00" stroke-width="1" fill="none" stroke-linecap="butt" stroke-dasharray="8,3,2,3" stroke-linejoin="round"/>
   <polyline points="123.84,315.65 128.779,333.48 133.718,351.31 138.657,369.05 143.596,386.61" stroke="#00ff00" stroke-width="1" fill="none" stroke-linecap="butt" stroke-dasharray="8,3,2,3" stroke-linejoin="round"/>
   <polyline points="165.428,281.97 172.858,308.445 180.287,334.651 187.716,360.766 195.145,386.656" stroke="#00ff00" stroke-width="1" fill="none" stroke-linecap="butt" stroke-dasharray="8,3,2,3" stroke-linejoin="round"/>
   <polyline points="203.928,238.745 214.62,276.297 225.311,313.398 236.003,350.23 246.695,386.656" stroke="#00ff00" stroke-width="1" fill="none" stroke-linecap="butt" stroke-dasharray="8,3,2,3" stroke-linejoin="round"/>
   <polyline points="239.183,185.705 253.948,236.944 268.714,287.553 283.479,337.442 298.244,386.656" stroke="#00ff00" stroke-width="1" fill="none" stroke-linecap="butt" stroke-dasharray="8,3,2,3" stroke-linejoin="round"/>
   <polyline points="271.226,123.209 290.868,190.838 310.51,257.296 330.152,322.494 349.793,386.656" stroke="#00ff00" stroke-width="1" fill="none" stroke-linecap="butt" stroke-dasharray="8,3,2,3" stroke-linejoin="round"/>
   <polyline points="300.195,51.9779 325.482,138.428 350.769,223.076 376.056,305.744 401.343,386.656" stroke="#00ff00" stroke-width="1" fill="none" stroke-linecap="butt" stroke-dasharray="8,3,2,3" stroke-linejoin="round"/>
   <polyline points="343.799,32.2483 357.993,80.6144 389.626,185.435 421.259,287.373 452.892,386.656" stroke="#00ff00" stroke-width="1" fill="none" stroke-linecap="butt" stroke-dasharray="8,3,2,3" stroke-linejoin="round"/>
   <polyline points="392.932,32.2483 427.219,145.001 465.83,267.742 504.442,386.656" stroke="#00ff00" stroke-width="1" fill="none" stroke-linecap="butt" stroke-dasharray="8,3,2,3" stroke-linejoin="round"/>
   <polyline points="442.039,32.2483 442.777,34.688 478.475,149.234 514.172,260.448" stroke="#00ff00" stroke-width="1" fill="none" stroke-linecap="butt" stroke-dasharray="8,3,2,3" stroke-linejoin="round"/>
   <polyline points="112.581,322.94 136.981,338.999 161.382,354.979 185.783,370.879 210.183,386.7" stroke="#0000ff" stroke-width="1" fill="none" stroke-linecap="butt" stroke-linejoin="round"/>
   <polyline points="149.089,296.641 183.393,319.393 217.697,341.985 252,364.42 286.304,386.699" stroke="#0000ff" stroke-width="1" fill="none" stroke-linecap="butt" stroke-linejoin="round"/>
   <polyline points="185.597,261.026 233.241,292.905 280.884,324.473 328.528,355.735 376.171,386.695" stroke="#0000ff" stroke-width="1" fill="none" stroke-linecap="butt" stroke-linejoin="round"/>
   <polyline points="222.106,213.251 287.546,257.486 352.987,301.129 418.428,344.19 483.868,386.682" stroke="#0000ff" stroke-width="1" fill="none" stroke-linecap="butt" stroke-linejoin="round"/>
   <polyline points="258.614,149.678 322.504,193.496 386.393,236.739 450.283,279.417 514.172,321.54" stroke="#0000ff" stroke-width="1" fill="none" stroke-linecap="butt" stroke-linejoin="round"/>
   <polyline points="295.122,65.6212 349.885,103.874 404.648,141.693 459.41,179.085 514.172,216.058" stroke="#0000ff" stroke-width="1" fill="none" stroke-linecap="butt" stroke-linejoin="round"/>
   <polyline points="440.589,32.2483 468.537,51.8292 514.172,83.5012" stroke="#0000ff" stroke-width="1" fill="none" stroke-linecap="butt" stroke-linejoin="round"/>
   <polyline points="78.4631,341.072 96.0109,352.54 113.558,363.967 131.106,375.354 148.654,386.701" stroke="#ff0000" stroke-width="1" fill="none" stroke-linecap="butt" stroke-dasharray="8,3,2,3" stroke-linejoin="round"/>
   <polyline points="117.747,319.695 143.619,336.578 169.491,353.372 195.363,370.08 221.235,386.701" stroke="#ff0000" stroke-width="1" fill="none" stroke-linecap="butt" stroke-dasharray="8,3,2,3" stroke-linejoin="round"/>
   <polyline points="151.325,294.754 186.947,317.988 222.57,341.056 258.193,363.959 293.816,386.701" stroke="#ff0000" stroke-width="1" fill="none" stroke-linecap="butt" stroke-dasharray="8,3,2,3" stroke-linejoin="round"/>
   <polyline points="180.246,266.931 226.784,297.293 273.322,327.372 319.859,357.174 366.397,386.701" stroke="#ff0000" stroke-width="1" fill="none" stroke-linecap="butt" stroke-dasharray="8,3,2,3" stroke-linejoin="round"/>
   <polyline points="205.419,236.808 263.808,274.938 322.198,312.624 380.588,349.876 438.978,386.701" stroke="#ff0000" stroke-width="1" fill="none" stroke-linecap="butt" stroke-dasharray="8,3,2,3" stroke-linejoin="round"/>
   <polyline points="227.567,204.847 298.565,251.275 369.563,297.051 440.561,342.188 511.56,386.701" stroke="#ff0000" stroke-width="1" fill="none" stroke-linecap="butt" stroke-dasharray="8,3,2,3" stroke-linejoin="round"/>
   <polyline points="247.258,171.404 313.987,215.195 380.715,258.409 447.444,301.056 514.172,343.149" stroke="#ff0000" stroke-width="1" fill="none" stroke-linecap="butt" stroke-dasharray="8,3,2,3" stroke-linejoin="round"/>
   <polyline points="264.929,136.754 327.24,177.806 389.551,218.354 451.862,258.405 514.172,297.97" stroke="#ff0000" stroke-width="1" fill="none" stroke-linecap="butt" stroke-dasharray="8,3,2,3" stroke-linejoin="round"/>
   <polyline points="280.92,101.109 339.233,139.687 397.546,177.823 455.859,215.522 514.172,252.792" stroke="#ff0000" stroke-width="1" fill="none" stroke-linecap="butt" stroke-dasharray="8,3,2,3" stroke-linejoin="round"/>
   <polyline points="295.497,64.6323 350.166,100.959 404.835,136.893 459.504,172.443 514.172,207.614" stroke="#ff0000" stroke-width="1" fill="none" stroke-linecap="butt" stroke-dasharray="8,3,2,3" stroke-linejoin="round"/>
   <polyline points="316.053,32.2483 360.198,61.715 411.523,95.628 462.848,129.2 514.172,162.436" stroke="#ff0000" stroke-width="1" fill="none" stroke-linecap="butt" stroke-dasharray="8,3,2,3" stroke-linejoin="round"/>
   <polyline points="384.835,32.2483 417.695,54.0755 465.934,85.8158 514.172,117.257" stroke="#ff0000" stroke-width="1" fill="none" stroke-linecap="butt" stroke-dasharray="8,3,2,3" stroke-linejoin="round"/>
   <polyline points="453.593,32.2483 468.796,42.3105 514.172,72.0791" stroke="#ff0000" stroke-width="1" fill="none" stroke-linecap="butt" stroke-dasharray="8,3,2,3" stroke-linejoin="round"/>
   <polyline points="76.0724,384.486 99.1302,383.923 122.188,383.236 145.246,382.404 168.304,381.4 191.362,380.196 214.42,378.757 237.478,377.046 260.536,375.02 283.594,372.633 306.651,369.83 329.709,366.553 352.767,362.737 375.825,358.307 398.883,353.183 421.941,347.278 444.999,340.493 468.057,332.721 491.115,323.845 514.172,313.736" stroke="#000000" stroke-width="1" fill="none" stroke-linecap="butt" stroke-linejoin="round"/>
   <polyline points="76.0724,382.27 99.1302,381.143 122.188,379.769 145.246,378.103 168.304,376.092 191.362,373.679 214.42,370.795 237.478,367.365 260.536,363.303 283.594,358.511 306.651,352.882 329.709,346.296 352.767,338.616 375.825,329.692 398.883,319.358 421.941,307.429 444.999,293.699 468.057,277.941 491.115,259.903 514.172,239.307" stroke="#000000" stroke-width="1" fill="none" stroke-linecap="butt" stroke-linejoin="round"/>
   <polyline points="76.0724,377.833 99.1302,375.576 122.188,372.824 145.246,369.484 168.304,365.454 191.362,360.611 214.42,354.821 237.478,347.928 260.536,339.755 283.594,330.104 306.651,318.751 329.709,305.443 352.767,289.897 375.825,271.792 398.883,250.77 421.941,226.427 444.999,198.311 468.057,165.91 491.115,128.649 514.172,85.8735" stroke="#000000" stroke-width="1" fill="none" stroke-linecap="butt" stroke-linejoin="round"/>
   <polyline points="76.0724,368.945 99.1302,364.418 122.188,358.894 145.246,352.187 168.304,344.083 191.362,334.336 214.42,322.664 237.478,308.743 260.536,292.205 283.594,272.629 306.651,249.532 329.709,222.367 352.767,190.505 375.825,153.228 398.883,109.71 421.941,58.9994 432.396,32.2483" stroke="#000000" stroke-width="1" fill="none" stroke-linecap="butt" stroke-linejoin="round"/>
   <polyline points="76.0724,360.035 99.1302,353.226 122.188,344.912 145.246,334.809 168.304,322.589 191.362,307.873 214.42,290.224 237.478,269.14 260.536,244.039 283.594,214.253 306.651,179.008 329.709,137.41 352.767,88.422 375.258,32.2483" stroke="#000000" stroke-width="1" fill="none" stroke-linecap="butt" stroke-linejoin="round"/>
   <polyline points="76.0724,351.103 99.1302,342 122.188,330.877 145.246,317.348 168.304,300.968 191.362,281.219 214.42,257.5 237.478,229.112 260.536,195.245 283.594,154.955 306.651,107.141 329.709,50.5081 335.996,32.2483" stroke="#000000" stroke-width="1" fill="none" stroke-linecap="butt" stroke-linejoin="round"/>
   <polyline points="76.0724,342.149 99.1302,330.74 122.188,316.788 145.246,299.805 168.304,279.221 191.362,254.374 214.42,224.486 237.478,188.652 260.536,145.811 283.594,94.7148 306.651,33.8916 307.176,32.2483" stroke="#000000" stroke-width="1" fill="none" stroke-linecap="butt" stroke-linejoin="round"/>
   <polyline points="349.264,32.2483 361.488,73.8605 393.868,181.022 426.247,285.302 458.627,386.656" stroke="#00ff00" stroke-width="2" fill="none" stroke-linecap="butt" stroke-dasharray="8,2,4,2,8,2,4,2" stroke-linejoin="round"/>
   <polyline points="277.857,108.274 336.936,149.169 396.015,189.566 455.094,229.472 514.172,268.897" stroke="#0000ff" stroke-width="2" fill="none" stroke-linecap="butt" stroke-linejoin="round"/>
   <polyline points="276.582,111.209 335.98,150.458 395.377,189.248 454.775,227.586 514.172,265.479" stroke="#ff0000" stroke-width="2" fill="none" stroke-linecap="butt" stroke-dasharray="8,2,4,2,8,2,4,2" stroke-linejoin="round"/>
   <polyline points="76.0724,373.836 99.1302,370.559 122.188,366.562 145.246,361.711 168.304,355.852 191.362,348.811 214.42,340.385 237.478,330.346 260.536,318.433 283.594,304.35 306.651,287.762 329.709,268.288 352.767,245.497 375.825,218.901 398.883,187.944 421.941,151.998 444.999,110.345 468.057,62.1625 480.451,32.2483" stroke="#000000" stroke-width="2" fill="none" stroke-linecap="butt" stroke-linejoin="round"/>
   <polygon points="400.219,191.787 399.109,193.179 397.506,193.952 395.725,193.952 394.121,193.179 393.012,191.787 392.615,190.052 393.012,188.316 394.121,186.925 395.725,186.152 397.506,186.152 399.109,186.925 400.219,188.316 400.615,190.052" fill="#ff0000" shape-rendering="crispEdges"/>
   <polyline points="400.615,190.052 400.219,191.787 399.109,193.179 397.506,193.952 395.725,193.952 394.121,193.179 393.012,191.787 392.615,190.052 393.012,188.316 394.121,186.925 395.725,186.152 397.506,186.152 399.109,186.925 400.219,188.316 400.615,190.052" stroke="#ff0000" stroke-width="0.5" fill="none" stroke-linecap="round" stroke-linejoin="round"/>
   <polyline points="281.857,108.274 281.461,110.01 280.351,111.402 278.747,112.174 276.967,112.174 275.363,111.402 274.253,110.01 273.857,108.274 274.253,106.539 275.363,105.147 276.967,104.375 278.747,104.375 280.351,105.147 281.461,106.539 281.857,108.274" stroke="#0000ff" stroke-width="0.5" fill="none" stroke-linecap="round" stroke-linejoin="round"/>
   <polyline points="280.582,111.209 280.186,112.944 279.076,114.336 277.472,115.109 275.692,115.109 274.088,114.336 272.978,112.944 272.582,111.209 272.978,109.473 274.088,108.082 275.692,107.309 277.472,107.309 279.076,108.082 280.186,109.473 280.582,111.209" stroke="#ff0000" stroke-width="0.5" fill="none" stroke-linecap="round" stroke-linejoin="round"/>
   <polyline points="240.709,190.052 240.313,191.787 239.203,193.179 237.599,193.952 235.819,193.952 234.215,193.179 233.105,191.787 232.709,190.052 233.105,188.316 234.215,186.925 235.819,186.152 237.599,186.152 239.203,186.925 240.313,188.316 240.709,190.052" stroke="#000000" stroke-width="0.5" fill="none" stroke-linecap="round" stroke-linejoin="round"/>
   <polyline points="236.709,386.701 236.709,190.052 514.611,190.052" stroke="#000000" stroke-width="0.5" fill="none" stroke-linecap="butt" stroke-dasharray="9,7" stroke-linejoin="round"/>
   <polyline points="276.582,386.701 276.582,111.209 514.611,111.209" stroke="#ff0000" stroke-width="0.5" fill="none" stroke-linecap="butt" stroke-dasharray="9,7" stroke-linejoin="round"/>
   <polyline points="277.857,386.701 277.857,108.274 514.611,108.274" stroke="#0000ff" stroke-width="0.5" fill="none" stroke-linecap="butt" stroke-dasharray="8,3,2,3" stroke-linejoin="round"/>
  </g>
 </g>
</svg>
