<?xml version='1.0' encoding='UTF-8' standalone='no'?>
<svg height="434pt" xmlns="http://www.w3.org/2000/svg" width="585pt" xmlns:xlink="http://www.w3.org/1999/xlink" viewBox="0 0 585 434">
 <title>Figure 6</title>
 <desc>
Creator: GL2PS 1.4.2, (C) 1999-2020 C. Geuzaine
For: Octave
CreationDate: Mon Nov 28 14:03:16 2022
</desc>
 <defs/>
 <polygon points="0,0 585,0 585,434 0,434" fill="#ffffff"/>
 <g>
  <polygon points="0,434 585,434 585,0 0,0" fill="#ffffff" shape-rendering="crispEdges"/>
  <clipPath id="cp00585434">
   <polygon points="0,434 585,434 585,0 0,0"/>
  </clipPath>
  <g clip-path="url(#cp00585434)">
   <polygon points="514.172,386.701 76.0724,386.701 76.0724,32.6024 514.172,32.6024" fill="#ffffff" shape-rendering="crispEdges"/>
   <polyline stroke="#262626" stroke-linejoin="miter" points="126.089,386.701 126.089,382.318" stroke-linecap="butt" stroke-width="0.5" fill="none"/>
   <polyline stroke="#262626" stroke-linejoin="miter" points="199.106,386.701 199.106,382.318" stroke-linecap="butt" stroke-width="0.5" fill="none"/>
   <polyline stroke="#262626" stroke-linejoin="miter" points="272.122,386.701 272.122,382.318" stroke-linecap="butt" stroke-width="0.5" fill="none"/>
   <polyline stroke="#262626" stroke-linejoin="miter" points="345.139,386.701 345.139,382.318" stroke-linecap="butt" stroke-width="0.5" fill="none"/>
   <polyline stroke="#262626" stroke-linejoin="miter" points="418.156,386.701 418.156,382.318" stroke-linecap="butt" stroke-width="0.5" fill="none"/>
   <polyline stroke="#262626" stroke-linejoin="miter" points="491.172,386.701 491.172,382.318" stroke-linecap="butt" stroke-width="0.5" fill="none"/>
   <g font-style="normal" transform="translate(112.589,411.704) rotate(-0,13.5,-13)" font-family="FreeSans" font-weight="normal" font-size="16" xml:space="preserve">
    <text y="-0" x="0 9 18 " fill="rgb(38,38,38)">280</text>
   </g>
   <g font-style="normal" transform="translate(185.605,411.704) rotate(-0,13.5,-13)" font-family="FreeSans" font-weight="normal" font-size="16" xml:space="preserve">
    <text y="-0" x="0 9 18 " fill="rgb(38,38,38)">290</text>
   </g>
   <g font-style="normal" transform="translate(258.622,411.704) rotate(-0,13.5,-13)" font-family="FreeSans" font-weight="normal" font-size="16" xml:space="preserve">
    <text y="-0" x="0 9 18 " fill="rgb(38,38,38)">300</text>
   </g>
   <g font-style="normal" transform="translate(331.639,411.704) rotate(-0,13.5,-13)" font-family="FreeSans" font-weight="normal" font-size="16" xml:space="preserve">
    <text y="-0" x="0 9 18 " fill="rgb(38,38,38)">310</text>
   </g>
   <g font-style="normal" transform="translate(404.655,411.704) rotate(-0,13.5,-13)" font-family="FreeSans" font-weight="normal" font-size="16" xml:space="preserve">
    <text y="-0" x="0 9 18 " fill="rgb(38,38,38)">320</text>
   </g>
   <g font-style="normal" transform="translate(477.672,411.704) rotate(-0,13.5,-13)" font-family="FreeSans" font-weight="normal" font-size="16" xml:space="preserve">
    <text y="-0" x="0 9 18 " fill="rgb(38,38,38)">330</text>
   </g>
   <polyline stroke="#262626" stroke-linejoin="miter" points="514.172,386.701 509.791,386.701" stroke-linecap="butt" stroke-width="0.5" fill="none"/>
   <polyline stroke="#262626" stroke-linejoin="miter" points="514.172,327.684 509.791,327.684" stroke-linecap="butt" stroke-width="0.5" fill="none"/>
   <polyline stroke="#262626" stroke-linejoin="miter" points="514.172,268.668 509.791,268.668" stroke-linecap="butt" stroke-width="0.5" fill="none"/>
   <polyline stroke="#262626" stroke-linejoin="miter" points="514.172,209.651 509.791,209.651" stroke-linecap="butt" stroke-width="0.5" fill="none"/>
   <polyline stroke="#262626" stroke-linejoin="miter" points="514.172,150.635 509.791,150.635" stroke-linecap="butt" stroke-width="0.5" fill="none"/>
   <polyline stroke="#262626" stroke-linejoin="miter" points="514.172,91.6187 509.791,91.6187" stroke-linecap="butt" stroke-width="0.5" fill="none"/>
   <g font-style="normal" transform="translate(522.174,393.201) rotate(-0,-0,-6.5)" font-family="FreeSans" font-weight="normal" font-size="16" xml:space="preserve">
    <text y="-0" x="0 " fill="rgb(38,38,38)">0</text>
   </g>
   <g font-style="normal" transform="translate(522.174,334.184) rotate(-0,-0,-6.5)" font-family="FreeSans" font-weight="normal" font-size="16" xml:space="preserve">
    <text y="-0" x="0 9 13 22 31 " fill="rgb(38,38,38)">0.005</text>
   </g>
   <g font-style="normal" transform="translate(522.174,275.168) rotate(-0,-0,-6.5)" font-family="FreeSans" font-weight="normal" font-size="16" xml:space="preserve">
    <text y="-0" x="0 9 13 22 " fill="rgb(38,38,38)">0.01</text>
   </g>
   <g font-style="normal" transform="translate(522.174,216.151) rotate(-0,-0,-6.5)" font-family="FreeSans" font-weight="normal" font-size="16" xml:space="preserve">
    <text y="-0" x="0 9 13 22 31 " fill="rgb(38,38,38)">0.015</text>
   </g>
   <g font-style="normal" transform="translate(522.174,157.135) rotate(-0,-0,-6.5)" font-family="FreeSans" font-weight="normal" font-size="16" xml:space="preserve">
    <text y="-0" x="0 9 13 22 " fill="rgb(38,38,38)">0.02</text>
   </g>
   <g font-style="normal" transform="translate(522.174,98.1187) rotate(-0,-0,-6.5)" font-family="FreeSans" font-weight="normal" font-size="16" xml:space="preserve">
    <text y="-0" x="0 9 13 22 31 " fill="rgb(38,38,38)">0.025</text>
   </g>
   <polyline stroke="#262626" stroke-linejoin="miter" stroke-dasharray="16,0" points="514.172,386.701 76.0724,386.701" stroke-linecap="square" stroke-width="0.5" fill="none"/>
   <polyline stroke="#262626" stroke-linejoin="miter" stroke-dasharray="16,0" points="514.172,386.701 514.172,32.6024" stroke-linecap="square" stroke-width="0.5" fill="none"/>
   <g font-style="normal" transform="translate(197.622,434.704) rotate(-0,97.5,-18)" font-family="FreeSans" font-weight="normal" font-size="17.6" xml:space="preserve">
    <text y="-4" x="0 12 18 26 30 42 51 55 65 69 80 89 103 113 122 128 138 143 152 158 167 171 177 189 " fill="rgb(38,38,38)">Dry Bulb Temperature (K)</text>
   </g>
   <g font-style="normal" transform="translate(450.174,227.651) rotate(-90,117,-18)" font-family="FreeSans" font-weight="normal" font-size="17.6" xml:space="preserve">
    <text y="-4" x="0 13 22 36 40 50 54 59 67 71 77 86 96 100 109 119 129 138 144 148 153 157 166 176 180 190 196 204 208 218 222 228 " fill="rgb(38,38,38)">Humidity (kg vapor / kg dry air)</text>
   </g>
   <polyline stroke="#1c8a1f" stroke-linejoin="round" stroke-dasharray="8,3,2,3" points="80.1612,343.077 83.1551,354.031 86.0757,364.953 89.0694,375.843 92.063,386.701" stroke-linecap="butt" stroke-width="1.2" fill="none"/>
   <polyline stroke="#1c8a1f" stroke-linejoin="round" stroke-dasharray="8,3,2,3" points="124.337,317.602 129.156,334.997 133.975,352.313 138.794,369.547 143.613,386.701" stroke-linecap="butt" stroke-width="1.2" fill="none"/>
   <polyline stroke="#1c8a1f" stroke-linejoin="round" stroke-dasharray="8,3,2,3" points="165.81,283.316 173.112,309.434 180.486,335.369 187.788,361.124 195.163,386.701" stroke-linecap="butt" stroke-width="1.2" fill="none"/>
   <polyline stroke="#1c8a1f" stroke-linejoin="round" stroke-dasharray="8,3,2,3" points="204.144,239.549 214.804,276.884 225.392,313.853 236.052,350.456 246.712,386.701" stroke-linecap="butt" stroke-width="1.2" fill="none"/>
   <polyline stroke="#1c8a1f" stroke-linejoin="round" stroke-dasharray="8,3,2,3" points="239.265,186.139 254.014,237.307 268.763,287.774 283.513,337.568 298.262,386.7" stroke-linecap="butt" stroke-width="1.2" fill="none"/>
   <polyline stroke="#1c8a1f" stroke-linejoin="round" stroke-dasharray="8,3,2,3" points="271.246,123.429 290.888,191.002 310.529,257.384 330.171,322.608 349.812,386.701" stroke-linecap="butt" stroke-width="1.2" fill="none"/>
   <polyline stroke="#1c8a1f" stroke-linejoin="round" stroke-dasharray="8,3,2,3" points="300.234,52.0659 325.497,138.56 350.761,223.119 376.025,305.808 401.362,386.7" stroke-linecap="butt" stroke-width="1.2" fill="none"/>
   <polyline stroke="#1c8a1f" stroke-linejoin="round" stroke-dasharray="8,3,2,3" points="343.785,32.2483 357.99,80.6653 389.606,185.478 421.295,287.448 452.912,386.7" stroke-linecap="butt" stroke-width="1.2" fill="none"/>
   <polyline stroke="#1c8a1f" stroke-linejoin="round" stroke-dasharray="8,3,2,3" points="392.913,32.2483 427.648,146.351 466.054,268.467 504.461,386.7" stroke-linecap="butt" stroke-width="1.2" fill="none"/>
   <polyline stroke="#1c8a1f" stroke-linejoin="round" stroke-dasharray="8,3,2,3" points="442.075,32.2483 442.981,35.2463 478.54,149.549 514.172,260.5" stroke-linecap="butt" stroke-width="1.2" fill="none"/>
   <polyline stroke="#1c8a1f" stroke-linejoin="round" stroke-dasharray="8,3,2,3" points="491.279,32.2483 514.172,104.921" stroke-linecap="butt" stroke-width="1.2" fill="none"/>
   <g font-style="normal" transform="translate(175.74,179.742) rotate(-0,-0,-5.5)" font-family="FreeSans" font-weight="normal" font-size="10" xml:space="preserve">
    <text y="-2" x="0 6 9 15 21 24 29 34 37 45 48 53 " fill="rgb(29,139,32)">0.86 cu.m/kg</text>
   </g>
   <g font-style="normal" transform="translate(140.692,232.856) rotate(-0,-0,-5.5)" font-family="FreeSans" font-weight="normal" font-size="10" xml:space="preserve">
    <text y="-2" x="0 6 9 15 21 24 29 34 37 45 48 53 " fill="rgb(29,139,32)">0.84 cu.m/kg</text>
   </g>
   <polyline stroke="#0000ff" stroke-linejoin="round" points="76.0724,342.149 93.2313,353.344 110.317,364.5 127.476,375.617 144.562,386.695" stroke-linecap="butt" stroke-width="1.2" fill="none"/>
   <polyline stroke="#0000ff" stroke-linejoin="round" points="112.581,322.94 136.968,338.999 161.356,354.978 185.817,370.877 210.204,386.699" stroke-linecap="butt" stroke-width="1.2" fill="none"/>
   <polyline stroke="#0000ff" stroke-linejoin="round" points="149.089,296.64 183.407,319.394 217.725,341.986 251.97,364.421 286.288,386.7" stroke-linecap="butt" stroke-width="1.2" fill="none"/>
   <polyline stroke="#0000ff" stroke-linejoin="round" points="185.597,261.031 233.277,292.906 280.884,324.476 328.564,355.739 376.171,386.701" stroke-linecap="butt" stroke-width="1.2" fill="none"/>
   <polyline stroke="#0000ff" stroke-linejoin="round" points="222.106,213.251 287.529,257.49 353.025,301.139 418.448,344.204 483.871,386.701" stroke-linecap="butt" stroke-width="1.2" fill="none"/>
   <polyline stroke="#0000ff" stroke-linejoin="round" points="258.614,149.679 322.504,193.493 386.393,236.74 450.283,279.417 514.172,321.541" stroke-linecap="butt" stroke-width="1.2" fill="none"/>
   <polyline stroke="#0000ff" stroke-linejoin="round" points="295.122,65.6161 349.885,103.871 404.648,141.688 459.41,179.081 514.172,216.061" stroke-linecap="butt" stroke-width="1.2" fill="none"/>
   <polyline stroke="#0000ff" stroke-linejoin="round" points="440.59,32.2483 468.537,51.8299 514.172,83.4981" stroke-linecap="butt" stroke-width="1.2" fill="none"/>
   <g font-style="normal" transform="translate(223.201,149.233) rotate(-0,-0,-4.5)" font-family="FreeSans" font-weight="normal" font-size="10" xml:space="preserve">
    <text y="-0" x="0 6 12 15 21 " fill="rgb(0,0,255)">25 °C</text>
   </g>
   <g font-style="normal" transform="translate(259.709,66.6105) rotate(-0,-0,-4.5)" font-family="FreeSans" font-weight="normal" font-size="10" xml:space="preserve">
    <text y="-0" x="0 6 12 15 21 " fill="rgb(0,0,255)">30 °C</text>
   </g>
   <polyline stroke="#ff0000" stroke-linejoin="round" stroke-dasharray="8,3,2,3" points="78.4821,341.073 96.006,352.541 113.53,363.967 131.127,375.354 148.651,386.701" stroke-linecap="butt" stroke-width="1.2" fill="none"/>
   <polyline stroke="#ff0000" stroke-linejoin="round" stroke-dasharray="8,3,2,3" points="117.765,319.695 143.613,336.578 169.461,353.373 195.382,370.08 221.23,386.701" stroke-linecap="butt" stroke-width="1.2" fill="none"/>
   <polyline stroke="#ff0000" stroke-linejoin="round" stroke-dasharray="8,3,2,3" points="151.353,294.753 186.912,317.988 222.544,341.056 258.176,363.959 293.808,386.701" stroke-linecap="butt" stroke-width="1.2" fill="none"/>
   <polyline stroke="#ff0000" stroke-linejoin="round" stroke-dasharray="8,3,2,3" points="180.34,266.968 226.852,297.321 273.364,327.391 319.875,357.183 366.387,386.701" stroke-linecap="butt" stroke-width="1.2" fill="none"/>
   <polyline stroke="#ff0000" stroke-linejoin="round" stroke-dasharray="8,3,2,3" points="205.458,236.823 263.798,274.95 322.212,312.631 380.625,349.88 438.965,386.701" stroke-linecap="butt" stroke-width="1.2" fill="none"/>
   <polyline stroke="#ff0000" stroke-linejoin="round" stroke-dasharray="8,3,2,3" points="227.582,204.848 298.554,251.282 369.6,297.053 440.572,342.189 511.544,386.701" stroke-linecap="butt" stroke-width="1.2" fill="none"/>
   <polyline stroke="#ff0000" stroke-linejoin="round" stroke-dasharray="8,3,2,3" points="247.297,171.409 313.961,215.199 380.698,258.411 447.435,301.057 514.172,343.149" stroke-linecap="butt" stroke-width="1.2" fill="none"/>
   <polyline stroke="#ff0000" stroke-linejoin="round" stroke-dasharray="8,3,2,3" points="264.894,136.754 327.25,177.806 389.533,218.35 451.889,258.411 514.172,297.971" stroke-linecap="butt" stroke-width="1.2" fill="none"/>
   <polyline stroke="#ff0000" stroke-linejoin="round" stroke-dasharray="8,3,2,3" points="280.884,101.109 339.225,139.693 397.565,177.818 455.832,215.518 514.172,252.792" stroke-linecap="butt" stroke-width="1.2" fill="none"/>
   <polyline stroke="#ff0000" stroke-linejoin="round" stroke-dasharray="8,3,2,3" points="295.488,64.6364 350.177,100.955 404.867,136.896 459.483,172.448 514.172,207.609" stroke-linecap="butt" stroke-width="1.2" fill="none"/>
   <polyline stroke="#ff0000" stroke-linejoin="round" stroke-dasharray="8,3,2,3" points="316.063,32.2483 360.253,61.7683 411.584,95.6672 462.842,129.224 514.172,162.438" stroke-linecap="butt" stroke-width="1.2" fill="none"/>
   <polyline stroke="#ff0000" stroke-linejoin="round" stroke-dasharray="8,3,2,3" points="384.85,32.2483 417.718,54.0961 465.981,85.8233 514.172,117.255" stroke-linecap="butt" stroke-width="1.2" fill="none"/>
   <polyline stroke="#ff0000" stroke-linejoin="round" stroke-dasharray="8,3,2,3" points="453.601,32.2483 468.829,42.3165 514.172,72.0843" stroke-linecap="butt" stroke-width="1.2" fill="none"/>
   <g font-style="normal" transform="translate(74.9769,315.479) rotate(-0,-0,-5.5)" font-family="FreeSans" font-weight="normal" font-size="10" xml:space="preserve">
    <text y="-2" x="0 6 12 15 20 25 28 33 " fill="rgb(255,0,0)">20 kJ/kg</text>
   </g>
   <g font-style="normal" transform="translate(104.184,293.053) rotate(-0,-0,-5.5)" font-family="FreeSans" font-weight="normal" font-size="10" xml:space="preserve">
    <text y="-2" x="0 6 12 15 20 25 28 33 " fill="rgb(255,0,0)">30 kJ/kg</text>
   </g>
   <polyline stroke="#000000" stroke-linejoin="round" points="76.0724,342.149 99.1457,330.74 122.219,316.787 145.219,299.805 168.292,279.221 191.366,254.374 214.439,224.488 237.512,188.653 260.513,145.808 283.586,94.7112 306.659,33.8889 307.183,32.2483" stroke-linecap="butt" stroke-width="1.2" fill="none"/>
   <polyline stroke="#000000" stroke-linejoin="round" points="76.0724,351.103 99.1457,342 122.219,330.877 145.219,317.348 168.292,300.969 191.366,281.219 214.439,257.502 237.512,229.115 260.513,195.24 283.586,154.955 306.659,107.14 329.733,50.5079 336.003,32.2483" stroke-linecap="butt" stroke-width="1.2" fill="none"/>
   <polyline stroke="#000000" stroke-linejoin="round" points="76.0724,360.035 99.1457,353.226 122.219,344.912 145.219,334.809 168.292,322.589 191.366,307.872 214.439,290.224 237.512,269.14 260.513,244.034 283.586,214.255 306.659,179.01 329.733,137.415 352.733,88.42 375.238,32.2483" stroke-linecap="butt" stroke-width="1.2" fill="none"/>
   <polyline stroke="#000000" stroke-linejoin="round" points="76.0724,368.945 99.1457,364.418 122.219,358.894 145.219,352.188 168.292,344.084 191.366,334.336 214.439,322.664 237.512,308.743 260.513,292.205 283.586,272.629 306.659,249.535 329.733,222.364 352.733,190.507 375.806,153.232 398.879,109.713 421.952,58.9945 432.414,32.2483" stroke-linecap="butt" stroke-width="1.2" fill="none"/>
   <g font-style="normal" transform="translate(330.535,60.7089) rotate(-0,-0,-4.5)" font-family="FreeSans" font-weight="normal" font-size="10" xml:space="preserve">
    <text y="-1" x="0 6 12 15 " fill="rgb(0,0,0)">80 %</text>
   </g>
   <g font-style="normal" transform="translate(368.504,60.7089) rotate(-0,-0,-4.5)" font-family="FreeSans" font-weight="normal" font-size="10" xml:space="preserve">
    <text y="-1" x="0 6 12 15 " fill="rgb(0,0,0)">60 %</text>
   </g>
   <g font-style="normal" transform="translate(425.457,60.7089) rotate(-0,-0,-4.5)" font-family="FreeSans" font-weight="normal" font-size="10" xml:space="preserve">
    <text y="-1" x="0 6 12 15 " fill="rgb(0,0,0)">40 %</text>
   </g>
   <polyline stroke="#4b4b4b" stroke-linejoin="round" points="76.0724,373.392 99.1457,370.001 122.219,365.865 145.219,360.845 168.292,354.784 191.366,347.497 214.439,338.777 237.512,328.388 260.513,316.057 283.586,301.477 306.659,284.302 329.733,264.135 352.733,240.529 375.806,212.98 398.879,180.899 421.952,143.636 445.026,100.448 468.026,50.4607 475.301,32.2483" stroke-linecap="butt" stroke-width="1.2" fill="none"/>
   <polyline stroke="#4b4b4b" stroke-linejoin="round" points="76.0724,375.613 99.1457,372.79 122.219,369.346 145.219,365.168 168.292,360.123 191.366,354.06 214.439,346.808 237.512,338.17 260.513,327.925 283.586,315.818 306.659,301.567 329.733,284.848 352.733,265.292 375.806,242.5 398.879,216.002 421.952,185.254 445.026,149.691 468.026,108.627 491.099,61.2725 503.388,32.2483" stroke-linecap="butt" stroke-width="1.2" fill="none"/>
   <polyline stroke="#4b4b4b" stroke-linejoin="round" points="76.0724,377.833 99.1457,375.576 122.219,372.823 145.219,369.484 168.292,365.453 191.366,360.612 214.439,354.821 237.512,347.928 260.513,339.755 283.586,330.104 306.659,318.751 329.733,305.443 352.733,289.896 375.806,271.791 398.879,250.774 421.952,226.424 445.026,198.308 468.026,165.909 491.099,128.646 514.172,85.8705" stroke-linecap="butt" stroke-width="1.2" fill="none"/>
   <polyline stroke="#4b4b4b" stroke-linejoin="round" points="76.0724,380.052 99.1457,378.36 122.219,376.298 145.219,373.796 168.292,370.777 191.366,367.151 214.439,362.817 237.512,357.66 260.513,351.548 283.586,344.335 306.659,335.857 329.733,325.925 352.733,314.336 375.806,300.854 398.879,285.222 421.952,267.145 445.026,246.312 468.026,222.34 491.099,194.85 514.172,163.371" stroke-linecap="butt" stroke-width="1.2" fill="none"/>
   <polyline stroke="#4b4b4b" stroke-linejoin="round" points="76.0724,382.27 99.1457,381.143 122.219,379.769 145.219,378.103 168.292,376.092 191.366,373.679 214.439,370.796 237.512,367.366 260.513,363.303 283.586,358.511 306.659,352.883 329.733,346.296 352.733,338.615 375.806,329.692 398.879,319.358 421.952,307.43 445.026,293.699 468.026,277.94 491.099,259.898 514.172,239.301" stroke-linecap="butt" stroke-width="1.2" fill="none"/>
   <polyline stroke="#4b4b4b" stroke-linejoin="round" points="76.0724,384.486 99.1457,383.923 122.219,383.236 145.219,382.404 168.292,381.4 191.366,380.196 214.439,378.757 237.512,377.046 260.513,375.02 283.586,372.633 306.659,369.83 329.733,366.554 352.733,362.736 375.806,358.307 398.879,353.183 421.952,347.278 445.026,340.493 468.026,332.721 491.099,323.845 514.172,313.736" stroke-linecap="butt" stroke-width="1.2" fill="none"/>
   <g font-style="normal" transform="translate(466.346,60.7089) rotate(-0,-0,-4.5)" font-family="FreeSans" font-weight="normal" font-size="10" xml:space="preserve">
    <text y="-1" x="0 6 12 15 " fill="rgb(75,75,75)">30 %</text>
   </g>
   <g font-style="normal" transform="translate(480.95,90.2171) rotate(-0,-0,-4.5)" font-family="FreeSans" font-weight="normal" font-size="10" xml:space="preserve">
    <text y="-1" x="0 6 12 15 " fill="rgb(75,75,75)">25 %</text>
   </g>
   <g font-style="normal" transform="translate(480.95,155.135) rotate(-0,-0,-4.5)" font-family="FreeSans" font-weight="normal" font-size="10" xml:space="preserve">
    <text y="-1" x="0 6 12 15 " fill="rgb(75,75,75)">20 %</text>
   </g>
   <g font-style="normal" transform="translate(480.95,214.151) rotate(-0,-0,-4.5)" font-family="FreeSans" font-weight="normal" font-size="10" xml:space="preserve">
    <text y="-1" x="0 6 12 15 " fill="rgb(75,75,75)">15 %</text>
   </g>
   <g font-style="normal" transform="translate(480.95,275.528) rotate(-0,-0,-4.5)" font-family="FreeSans" font-weight="normal" font-size="10" xml:space="preserve">
    <text y="-1" x="0 6 12 15 " fill="rgb(75,75,75)">10 %</text>
   </g>
   <g font-style="normal" transform="translate(480.95,336.905) rotate(-0,-0,-4.5)" font-family="FreeSans" font-weight="normal" font-size="10" xml:space="preserve">
    <text y="-1" x="0 6 9 " fill="rgb(75,75,75)">5 %</text>
   </g>
   <polyline stroke="#1d8b20" stroke-linejoin="round" stroke-dasharray="8,2,4,2,8,2,4,2" points="278.781,106.371 299.756,178.442 320.731,249.162 341.706,318.569 362.681,386.7" stroke-linecap="butt" stroke-width="2" fill="none"/>
   <polyline stroke="#0000ff" stroke-linejoin="round" points="213.616,225.623 274.462,266.65 335.308,307.165 396.155,347.179 457.001,386.701" stroke-linecap="butt" stroke-width="2" fill="none"/>
   <polyline stroke="#ff0000" stroke-linejoin="round" stroke-dasharray="8,2,4,2,8,2,4,2" points="212.37,227.407 274.465,267.971 336.561,308.035 398.657,347.609 460.753,386.701" stroke-linecap="butt" stroke-width="2" fill="none"/>
   <polyline stroke="#000000" stroke-linejoin="round" points="76.0724,378.864 99.1302,376.87 122.188,374.438 145.246,371.488 168.304,367.928 191.362,363.651 214.42,358.538 237.478,352.452 260.536,345.238 283.594,336.722 306.651,326.707 329.709,314.973 352.767,301.27 375.825,285.321 398.883,266.814 421.941,245.4 444.999,220.686 468.057,192.232 491.115,159.546 514.172,122.071" stroke-linecap="butt" stroke-width="2" fill="none"/>
   <polygon points="342.608,311.438 341.498,312.83 339.894,313.602 338.114,313.602 336.51,312.83 335.401,311.438 335.004,309.703 335.401,307.967 336.51,306.575 338.114,305.803 339.894,305.803 341.498,306.575 342.608,307.967 343.004,309.703" fill="#ff0000" shape-rendering="crispEdges"/>
   <polyline stroke="#ff0000" stroke-linejoin="round" points="343.004,309.703 342.608,311.438 341.498,312.83 339.894,313.602 338.114,313.602 336.51,312.83 335.401,311.438 335.004,309.703 335.401,307.967 336.51,306.575 338.114,305.803 339.894,305.803 341.498,306.575 342.608,307.967 343.004,309.703" stroke-linecap="round" stroke-width="0.5" fill="none"/>
   <polyline stroke="#0000ff" stroke-linejoin="round" points="217.615,225.623 217.219,227.358 216.109,228.75 214.505,229.523 212.725,229.523 211.121,228.75 210.011,227.358 209.615,225.623 210.011,223.887 211.121,222.496 212.725,221.723 214.505,221.723 216.109,222.496 217.219,223.887 217.615,225.623" stroke-linecap="round" stroke-width="0.5" fill="none"/>
   <polyline stroke="#ff0000" stroke-linejoin="round" points="216.351,227.395 215.955,229.13 214.845,230.522 213.242,231.295 211.461,231.295 209.857,230.522 208.748,229.13 208.351,227.395 208.748,225.659 209.857,224.268 211.461,223.495 213.242,223.495 214.845,224.268 215.955,225.659 216.351,227.395" stroke-linecap="round" stroke-width="0.5" fill="none"/>
   <polyline stroke="#000000" stroke-linejoin="round" points="136.562,309.703 136.166,311.438 135.056,312.83 133.452,313.602 131.672,313.602 130.068,312.83 128.958,311.438 128.562,309.703 128.958,307.967 130.068,306.575 131.672,305.803 133.452,305.803 135.056,306.575 136.166,307.967 136.562,309.703" stroke-linecap="round" stroke-width="0.5" fill="none"/>
   <polyline stroke="#000000" stroke-linejoin="round" stroke-dasharray="9,7" points="132.562,386.701 132.562,309.703 514.611,309.703" stroke-linecap="butt" stroke-width="0.5" fill="none"/>
   <polyline stroke="#ff0000" stroke-linejoin="round" stroke-dasharray="9,7" points="212.352,386.701 212.352,227.395 514.611,227.395" stroke-linecap="butt" stroke-width="0.5" fill="none"/>
   <polyline stroke="#0000ff" stroke-linejoin="round" stroke-dasharray="8,3,2,3" points="213.616,386.701 213.616,225.623 514.611,225.623" stroke-linecap="butt" stroke-width="0.5" fill="none"/>
   <polyline stroke="#000000" stroke-linejoin="round" stroke-dasharray="8,3,2,3" points="339.005,386.701 339.005,32.2483" stroke-linecap="butt" stroke-width="0.5" fill="none"/>
  </g>
 </g>
</svg>
